<?xml version="1.0" encoding="UTF-8" standalone="no"?>
<!-- Created with Inkscape (http://www.inkscape.org/) -->
<svg xmlns:inkscape="http://www.inkscape.org/namespaces/inkscape" xmlns:rdf="http://www.w3.org/1999/02/22-rdf-syntax-ns#" xmlns="http://www.w3.org/2000/svg" xmlns:xlink="http://www.w3.org/1999/xlink" xmlns:ns1="http://sozi.baierouge.fr" xmlns:cc="http://creativecommons.org/ns#" xmlns:sodipodi="http://sodipodi.sourceforge.net/DTD/sodipodi-0.dtd" xmlns:dc="http://purl.org/dc/elements/1.1/" id="svg2" xml:space="preserve" viewBox="0 0 34.185 29.742" version="1.1" inkscape:version="0.91 r13725">
  <defs id="defs6">
    <linearGradient id="linearGradient24" y2="-16349" gradientUnits="userSpaceOnUse" x2="13.034" gradientTransform="matrix(.00011722 -.8 .8 -.0008 13081 7.2921)" y1="-16349" x1="6.209">
      <stop id="stop26" style="stop-color:#8f8f8f" offset="0"/>
      <stop id="stop28" style="stop-color:#e8e8e8" offset=".22750"/>
      <stop id="stop30" style="stop-color:#696969" offset="1"/>
    </linearGradient>
    <linearGradient id="linearGradient44" y2="-13813" gradientUnits="userSpaceOnUse" x2="-1912.4" gradientTransform="matrix(.21808 -.76968 .76968 .21808 11051 1549)" y1="-13813" x1="-1921.5">
      <stop id="stop46" style="stop-color:#e8e8e8" offset="0"/>
      <stop id="stop48" style="stop-color:#ededed" offset="1"/>
    </linearGradient>
    <linearGradient id="linearGradient62" y2="-13813" gradientUnits="userSpaceOnUse" x2="-1912.4" gradientTransform="matrix(.21808 -.76968 .76968 .21808 11051 1549)" y1="-13813" x1="-1921.5">
      <stop id="stop64" style="stop-color:#e8e8e8" offset="0"/>
      <stop id="stop66" style="stop-color:#878787" offset="1"/>
    </linearGradient>
    <linearGradient id="linearGradient80" y2="-17619" gradientUnits="userSpaceOnUse" x2="1516.7" gradientTransform="matrix(-.1364 -.78832 .78832 -.1364 14101 -1197.6)" y1="-17619" x1="1515.4">
      <stop id="stop82" style="stop-color:#8f8f8f" offset="0"/>
      <stop id="stop84" style="stop-color:#e8e8e8" offset=".22750"/>
      <stop id="stop86" style="stop-color:#696969" offset="1"/>
    </linearGradient>
    <linearGradient id="linearGradient100" y2="324.31" gradientUnits="userSpaceOnUse" x2="369.67" gradientTransform="matrix(.79928 .03424 -.03424 .79928 -269.31 -264.24)" y1="324.31" x1="367.92">
      <stop id="stop102" style="stop-color:#d1d94c" offset="0"/>
      <stop id="stop104" style="stop-color:#8e942b" offset="1"/>
    </linearGradient>
    <linearGradient id="linearGradient118" y2="323.26" gradientUnits="userSpaceOnUse" x2="373.13" gradientTransform="matrix(.79928 .03424 -.03424 .79928 -269.31 -264.24)" y1="323.26" x1="371.38">
      <stop id="stop120" style="stop-color:#d1d94c" offset="0"/>
      <stop id="stop122" style="stop-color:#8e942b" offset="1"/>
    </linearGradient>
    <linearGradient id="linearGradient136" y2="322.5" gradientUnits="userSpaceOnUse" x2="376.95" gradientTransform="matrix(.79928 .03424 -.03424 .79928 -269.31 -264.24)" y1="322.5" x1="375.2">
      <stop id="stop138" style="stop-color:#d1d94c" offset="0"/>
      <stop id="stop140" style="stop-color:#8e942b" offset="1"/>
    </linearGradient>
    <linearGradient id="linearGradient154" y2="-13443" gradientUnits="userSpaceOnUse" x2="-2087.2" gradientTransform="matrix(.24528 -.76144 .76144 .24528 10766 1711.1)" y1="-13443" x1="-2107.5">
      <stop id="stop156" style="stop-color:#45567f" offset="0"/>
      <stop id="stop158" style="stop-color:#2d2e38" offset="1"/>
    </linearGradient>
    <linearGradient id="linearGradient178" y2="-12878" gradientUnits="userSpaceOnUse" x2="-2349.4" gradientTransform="matrix(.28576 -.7472 .7472 .28576 10318 1925.4)" y1="-12878" x1="-2370.1">
      <stop id="stop180" style="stop-color:#333f5d" offset="0"/>
      <stop id="stop182" style="stop-color:#1e1f26" offset="1"/>
    </linearGradient>
    <linearGradient id="linearGradient196" y2="-3.667" gradientUnits="userSpaceOnUse" x2="25.25" gradientTransform="matrix(.8 0 0 .8 4.7877 21.794)" y1="-3.667" x1="1.0498">
      <stop id="stop198" style="stop-color:#5b71a7" offset="0"/>
      <stop id="stop200" style="stop-color:#383e62" offset="1"/>
    </linearGradient>
    <linearGradient id="linearGradient214" y2="-13441" gradientUnits="userSpaceOnUse" x2="-2087.1" gradientTransform="matrix(.24528 -.76144 .76144 .24528 10766 1711.1)" y1="-13441" x1="-2107.5">
      <stop id="stop216" style="stop-color:#222b40" offset="0"/>
      <stop id="stop218" style="stop-color:#222b40" offset="1"/>
    </linearGradient>
    <linearGradient id="linearGradient234" y2="-16801" gradientUnits="userSpaceOnUse" x2="510.83" gradientTransform="matrix(-.04736 -.79856 .79856 -.04736 13462 -378.66)" y1="-16801" x1="507.88">
      <stop id="stop236" style="stop-color:#f6f9ff" offset="0"/>
      <stop id="stop238" style="stop-color:#888daa" offset="1"/>
    </linearGradient>
    <linearGradient id="linearGradient254" y2="-16834" gradientUnits="userSpaceOnUse" x2="550.47" gradientTransform="matrix(-.05128 -.79832 .79832 -.05128 13492 -412.49)" y1="-16834" x1="547.74">
      <stop id="stop256" style="stop-color:#f6f9ff" offset="0"/>
      <stop id="stop258" style="stop-color:#888daa" offset="1"/>
    </linearGradient>
    <radialGradient id="radialGradient278" gradientUnits="userSpaceOnUse" cy="138.59" cx="12.264" gradientTransform="matrix(.79992 .0136 0 -.43328 5.7381 82.191)" r="19.065">
      <stop id="stop280" style="stop-color:#a771d2" offset="0"/>
      <stop id="stop282" style="stop-color:#70352d" offset="1"/>
    </radialGradient>
    <radialGradient id="radialGradient296" gradientUnits="userSpaceOnUse" cy="136.54" cx="11.003" gradientTransform="matrix(.79992 .01344 0 -.43344 5.7061 81.549)" r="20.14">
      <stop id="stop298" style="stop-color:#8d60b2" offset="0"/>
      <stop id="stop300" style="stop-color:#582924" offset="1"/>
    </radialGradient>
    <linearGradient id="linearGradient314" y2="-8.2505" gradientUnits="userSpaceOnUse" x2="28.169" gradientTransform="matrix(.8 0 0 .8 4.7877 21.794)" y1="-8.2505" x1="-1.6563">
      <stop id="stop316" style="stop-color:#d6ceb8" offset="0"/>
      <stop id="stop318" style="stop-color:#ece4cb" offset=".27450"/>
      <stop id="stop320" style="stop-color:#d6ceb8" offset="1"/>
    </linearGradient>
    <linearGradient id="linearGradient334" y2="-8.2495" gradientUnits="userSpaceOnUse" x2="28.162" gradientTransform="matrix(.8 0 0 .8 4.7877 21.794)" y1="-8.2495" x1="-1.6626">
      <stop id="stop336" style="stop-color:#797567" offset="0"/>
      <stop id="stop338" style="stop-color:#9e9887" offset="1"/>
    </linearGradient>
  </defs>
  <g id="g10" transform="matrix(1.25 0 0 -1.25 0 29.742)">
    <g id="g12">
      <g id="g14">
        <g id="g16">
          <g id="g22">
            <path id="path32" style="fill-rule:evenodd;fill:url(#linearGradient24)" d="m3.348 10.716c0.054 0.48-0.067 0.785-0.36 0.918l-0.359 0.039c-0.188 0-0.348-0.028-0.481-0.078-0.425-0.133-0.668-0.426-0.718-0.883-0.028-0.399 0.078-0.68 0.316-0.84 0.348-0.184 0.695-0.184 1.043 0 0.32 0.187 0.508 0.469 0.559 0.844zm-2.762 3.718c0.082 0.641 0.402 0.973 0.961 1 1.094 0.028 1.867-0.507 2.32-1.601 0.403-0.984 0.43-1.641 0.082-1.961 0.348-0.426 0.321-1.066-0.082-1.918-0.453-0.934-1.226-1.227-2.32-0.879-0.559 0.184-0.879 0.613-0.961 1.277-0.106 0.696 0.094 1.227 0.602 1.602l0.359 0.281-0.359 0.36c-0.508 0.558-0.708 1.172-0.602 1.839zm2.762-1.199c-0.051 0.399-0.239 0.731-0.559 1-0.348 0.321-0.695 0.426-1.043 0.321-0.238-0.11-0.344-0.375-0.316-0.801 0.05-0.453 0.293-0.813 0.718-1.082l0.481-0.239 0.359-0.039c0.293 0.028 0.414 0.305 0.36 0.84z" inkscape:connector-curvature="0"/>
          </g>
        </g>
      </g>
      <g id="g34">
        <g id="g36">
          <g id="g42">
            <path id="path50" style="fill-rule:evenodd;fill:url(#linearGradient44)" d="m1.789 11.434c-0.453-0.105-0.695-0.386-0.723-0.839-0.023-0.426 0.082-0.723 0.321-0.883 0.32-0.211 0.656-0.211 1 0 0.32 0.187 0.508 0.469 0.562 0.84 0.078 0.48-0.027 0.777-0.32 0.882l-0.359 0.079-0.481-0.079zm-1.601 2.84c0.109 0.641 0.441 0.973 1 1 1.093 0.028 1.867-0.507 2.32-1.601 0.398-0.985 0.414-1.641 0.039-1.961 0.375-0.399 0.359-1.039-0.039-1.918-0.453-0.961-1.227-1.266-2.32-0.922-0.559 0.215-0.895 0.656-1 1.32-0.106 0.696 0.093 1.227 0.601 1.602l0.399 0.281-0.399 0.359c-0.508 0.559-0.707 1.172-0.601 1.84zm1.199 0.118c-0.239-0.106-0.344-0.372-0.321-0.797 0.028-0.481 0.27-0.844 0.723-1.082l0.481-0.239 0.359-0.043c0.293 0.028 0.398 0.309 0.32 0.84-0.054 0.403-0.242 0.735-0.562 1.004-0.344 0.317-0.68 0.426-1 0.317z" inkscape:connector-curvature="0"/>
          </g>
        </g>
      </g>
      <g id="g52">
        <g id="g54">
          <g id="g60">
            <path id="path68" style="fill-rule:evenodd;fill:url(#linearGradient62)" d="m1.629 11.352c-0.453-0.105-0.695-0.386-0.723-0.839-0.023-0.426 0.082-0.719 0.321-0.879 0.32-0.215 0.656-0.215 1 0 0.32 0.187 0.507 0.465 0.562 0.84 0.106 0.507 0 0.8-0.32 0.878l-0.36 0.082-0.48-0.082zm-1.602 2.84c0.106 0.641 0.442 0.977 1 1 1.094 0.028 1.868-0.504 2.321-1.597 0.398-0.989 0.414-1.641 0.039-1.961 0.375-0.399 0.359-1.039-0.039-1.918-0.453-0.961-1.227-1.27-2.321-0.922-0.558 0.215-0.894 0.652-1 1.32-0.105 0.692 0.094 1.227 0.602 1.602l0.398 0.277-0.398 0.359c-0.508 0.563-0.707 1.176-0.602 1.84zm2.762-1.199c-0.055 0.402-0.242 0.734-0.562 1-0.344 0.32-0.68 0.426-1 0.32-0.239-0.105-0.344-0.375-0.321-0.8 0.028-0.481 0.27-0.84 0.723-1.079l0.48-0.242 0.36-0.039c0.293 0.028 0.398 0.309 0.32 0.84z" inkscape:connector-curvature="0"/>
          </g>
        </g>
      </g>
      <g id="g70">
        <g id="g72">
          <g id="g78">
            <path id="path88" style="fill-rule:evenodd;fill:url(#linearGradient80)" d="m8.148 10.395-4.32 0.637c-0.242-0.023-0.359 0.11-0.359 0.402 0 0.188 0.066 0.321 0.199 0.399 0.055 0.055 0.105 0.082 0.16 0.082l4.32-0.641v-0.879z" inkscape:connector-curvature="0"/>
          </g>
        </g>
      </g>
      <g id="g90">
        <g id="g92">
          <g id="g98">
            <path id="path106" style="fill-rule:evenodd;fill:url(#linearGradient100)" d="m12.828 9.434 3.719-0.281c-0.266-1.094-0.481-1.851-0.641-2.281-0.32-0.824-0.652-1.199-1-1.117-0.664 0.16-1.359 1.387-2.078 3.679z" inkscape:connector-curvature="0"/>
          </g>
        </g>
      </g>
      <g id="g108">
        <g id="g110">
          <g id="g116">
            <path id="path124" style="fill-rule:evenodd;fill:url(#linearGradient118)" d="m15.629 8.716 3.719-0.282c-0.266-1.093-0.481-1.851-0.641-2.281-0.32-0.824-0.652-1.199-1-1.121-0.668 0.16-1.359 1.391-2.078 3.684z" inkscape:connector-curvature="0"/>
          </g>
        </g>
      </g>
      <g id="g126">
        <g id="g128">
          <g id="g134">
            <path id="path142" style="fill-rule:evenodd;fill:url(#linearGradient136)" d="m18.707 8.235 3.723-0.281c-0.59-2.398-1.149-3.535-1.684-3.398-0.637 0.16-1.316 1.386-2.039 3.679z" inkscape:connector-curvature="0"/>
          </g>
        </g>
      </g>
      <g id="g144">
        <g id="g146">
          <g id="g152">
            <path id="path160" style="fill-rule:evenodd;fill:url(#linearGradient154)" d="m24.867 20.114c0.293-0.242 0.52-0.613 0.68-1.121 0.082-0.348 0.133-1.867 0.16-4.559 0.027-2.453 0.027-4.015 0-4.679v-1.16c-0.027-0.403-0.145-0.762-0.359-1.082-0.215-0.348-0.934-0.946-2.16-1.797-1.094-0.778-1.879-1.282-2.36-1.524-1.199-0.691-2.176-1.066-2.922-1.117l-0.879-1.121c-0.398-0.535-1.011-0.895-1.839-1.082-0.668-0.184-1.254-0.227-1.758-0.117-0.321 0.051-0.375 0.265-0.16 0.64 0.132 0.184 0.316 0.426 0.558 0.719 0.16 0.32 0.172 0.758 0.039 1.32h-0.32l-1.277-1.039c-0.829-0.613-1.922-0.976-3.282-1.082-0.453-0.027-0.586 0.176-0.402 0.602 0.32 0.48 0.508 0.785 0.562 0.918 0.133 0.266 0.161 0.629 0.079 1.082l-0.239 0.039-2.121-0.922c-1.281-0.531-2.16-0.652-2.64-0.359-0.106 0.082 0 0.265 0.32 0.562 0.402 0.348 0.629 0.614 0.68 0.797 0.136 0.481 0.203 1.137 0.203 1.961-0.11 0.695-0.16 1.441-0.16 2.242-0.11 2.586-0.161 4.481-0.161 5.68 0.024 2.133 0.321 3.398 0.879 3.801 0.774 0.531 2 1.25 3.68 2.156 2.027 1.121 3.332 1.695 3.918 1.723 0.723 0.027 2.269-0.121 4.641-0.442 2.507-0.347 4.054-0.519 4.64-0.519 0.879 0 1.547-0.172 2-0.52z" inkscape:connector-curvature="0"/>
          </g>
        </g>
      </g>
      <path id="path162" style="fill-rule:evenodd;fill:#212330" d="m13.547 3.434-1.277-1.039c-0.829-0.613-1.922-0.976-3.282-1.082-0.508-0.027-0.625 0.215-0.359 0.719 0.559-0.105 1.25 0.027 2.078 0.402 1.094 0.532 2.172 1.399 3.242 2.598 0.504-1.066 0.571-1.797 0.199-2.199l-0.199-0.199c0.051 0.293 0.028 0.558-0.082 0.8h-0.32z" inkscape:connector-curvature="0"/>
      <path id="path164" style="fill-rule:evenodd;fill:#212330" d="m15.707 2.032c1.066 0.617 1.813 1.121 2.242 1.524l-0.679-1.321-0.243-0.281c-0.398-0.535-1.011-0.895-1.839-1.082-0.668-0.184-1.254-0.227-1.758-0.117-0.321 0.051-0.348 0.304-0.082 0.758 0.718-0.133 1.507 0.043 2.359 0.519z" inkscape:connector-curvature="0"/>
      <path id="path166" style="fill-rule:evenodd;fill:#212330" d="m6.867 3.032c-1.281-0.531-2.16-0.652-2.64-0.359-0.106 0.054-0.012 0.226 0.281 0.519 1.359 0.137 2.441 0.508 3.238 1.121l1.563 1.121-0.161-1.281-0.082-0.238-0.078 0.039-2.121-0.922z" inkscape:connector-curvature="0"/>
      <g id="g168">
        <g id="g170">
          <g id="g176">
            <path id="path184" style="fill-rule:evenodd;fill:url(#linearGradient178)" d="m18.109 15.993c0 0.055 0.024 0.094 0.079 0.121 0.132 0.16 0.851 0.559 2.16 1.199 1.492 0.719 2.441 1.215 2.84 1.481 0.347 0.238 0.945 0.64 1.8 1.199 0.239-0.266 0.426-0.598 0.559-1l0.121-2.078c0.027-0.856 0.039-3.242 0.039-7.16v-1.082l0.039 0.043 0.043-0.723c0.106-0.504 0.32-0.867 0.641-1.078 1.09-0.773 1.156-1.227 0.199-1.359-0.453-0.055-1.109 0-1.961 0.16-0.719 0.156-1.094 0.238-1.121 0.238l0.519-0.762c0.375-0.531 0.668-0.89 0.883-1.078 0.321-0.265 0.133-0.547-0.562-0.84-0.692-0.293-1.414-0.308-2.16-0.039l-1.879 0.719-0.039-0.039c-0.055-0.773-0.243-1.469-0.563-2.082-0.906-1.758-1.586-2.25-2.039-1.481-0.293 0.508-0.254 1.415 0.121 2.723l0.121 0.481 0.078 0.039c0.106 0.48 0.161 0.879 0.161 1.199l-0.079 11.199z" inkscape:connector-curvature="0"/>
          </g>
        </g>
      </g>
      <g id="g186">
        <g id="g188">
          <g id="g194">
            <path id="path202" style="fill-rule:evenodd;fill:url(#linearGradient196)" d="m23.746 19.032c-0.398-0.238-1.426-0.769-3.078-1.598-1.52-0.718-2.348-1.16-2.48-1.32-0.747 0.055-3.079 0.293-7 0.719-2.985 0.32-4.84 0.453-5.559 0.402 0.051 0.133 0.172 0.293 0.359 0.481 0.774 0.531 2 1.25 3.68 2.156 2.027 1.121 3.332 1.695 3.918 1.723 1.789 0.078 4.883-0.243 9.281-0.961 1.121-0.16 1.828-0.371 2.121-0.641-0.293-0.293-0.707-0.613-1.242-0.961z" inkscape:connector-curvature="0"/>
          </g>
        </g>
      </g>
      <g id="g204">
        <g id="g206">
          <g id="g212">
            <path id="path220" style="fill-rule:evenodd;fill:url(#linearGradient214)" d="m24.867 20.114c0.293-0.242 0.52-0.613 0.68-1.121 0.105-0.348 0.16-2.105 0.16-5.277l-2.598-1.043c-0.429-0.16-0.761-0.399-1-0.719l-2.16-0.922c-8.64 0.563-13.469 0.867-14.48 0.922h-0.36c-0.109 3.359 0.184 5.281 0.879 5.762 0.774 0.531 2 1.25 3.68 2.156 2.027 1.121 3.332 1.695 3.918 1.723 0.723 0.027 2.269-0.121 4.641-0.442 2.507-0.347 4.054-0.519 4.64-0.519 0.879 0 1.547-0.172 2-0.52z" inkscape:connector-curvature="0"/>
          </g>
        </g>
      </g>
      <path id="path222" style="fill-rule:evenodd;fill:#191a24" d="m21.789 10.876c0-0.375-0.082-0.707-0.242-1-0.184-0.27-0.399-0.402-0.641-0.402-0.238 0-0.437 0.132-0.597 0.402-0.188 0.293-0.282 0.625-0.282 1 0 0.371 0.094 0.707 0.282 1 0.16 0.266 0.359 0.398 0.597 0.398 0.242 0 0.457-0.132 0.641-0.398 0.16-0.293 0.242-0.629 0.242-1z" inkscape:connector-curvature="0"/>
      <g id="g224">
        <g id="g226">
          <g id="g232">
            <path id="path240" style="fill-rule:evenodd;fill:url(#linearGradient234)" d="m21.43 10.876c0-0.293-0.067-0.535-0.203-0.723-0.133-0.183-0.305-0.277-0.52-0.277-0.187 0-0.359 0.09-0.519 0.277-0.133 0.188-0.2 0.43-0.2 0.723s0.067 0.531 0.2 0.719c0.16 0.214 0.332 0.32 0.519 0.32 0.188 0 0.359-0.106 0.52-0.32 0.136-0.188 0.203-0.426 0.203-0.719z" inkscape:connector-curvature="0"/>
          </g>
        </g>
      </g>
      <path id="path242" style="fill-rule:evenodd;fill:#191a24" d="m24.867 12.595c0-0.348-0.051-0.657-0.16-0.922-0.133-0.266-0.277-0.399-0.437-0.399-0.137 0-0.27 0.133-0.403 0.399-0.105 0.265-0.16 0.574-0.16 0.922 0 0.343 0.055 0.64 0.16 0.879 0.133 0.242 0.266 0.359 0.403 0.359 0.16 0 0.304-0.117 0.437-0.359 0.105-0.239 0.16-0.532 0.16-0.879z" inkscape:connector-curvature="0"/>
      <g id="g244">
        <g id="g246">
          <g id="g252">
            <path id="path260" style="fill-rule:evenodd;fill:url(#linearGradient254)" d="m24.629 12.595c0-0.641-0.16-0.961-0.481-0.961-0.132 0-0.242 0.093-0.32 0.281-0.105 0.184-0.16 0.414-0.16 0.68 0 0.238 0.055 0.453 0.16 0.64 0.078 0.184 0.188 0.278 0.32 0.278 0.321 0 0.481-0.305 0.481-0.918z" inkscape:connector-curvature="0"/>
          </g>
        </g>
      </g>
      <path id="path262" style="fill-rule:evenodd;fill:#7f8abc" d="m24.988 19.993c-0.054-0.32-1.16-1.066-3.32-2.238-2.16-1.199-3.266-1.934-3.32-2.199-0.055-0.293-0.055-3.618 0-9.961-0.028-1.36-0.2-2.2-0.52-2.52l0.121 0.481c0.078 0.211 0.106 1.812 0.078 4.796-0.027 2.911-0.066 4.801-0.121 5.68-0.051 0.883-0.105 1.387-0.16 1.524-0.051 0.16-0.199 0.265-0.437 0.316-0.321 0.082-2.586 0.336-6.801 0.762l-4.84 0.8 6.039-0.64c1.121-0.133 2.414-0.254 3.879-0.36 1.469-0.105 2.32-0.132 2.562-0.082 0.239 0.028 1.282 0.52 3.122 1.481 1.144 0.613 2.382 1.336 3.718 2.16z" inkscape:connector-curvature="0"/>
      <path id="path264" style="fill-rule:evenodd;fill:#d7dffe" d="m17.109 16.474c0.797-0.133 1.68 0 2.637 0.402-0.558-0.43-0.945-0.774-1.16-1.043-0.184-0.184-0.305-0.438-0.359-0.758-0.051-0.402-0.118-0.668-0.2-0.801-0.187 0.028-0.281 0.36-0.281 1 0 0.293-0.078 0.493-0.238 0.602-0.055 0.051-0.387 0.133-1 0.238-0.535 0.106-0.801 0.227-0.801 0.36h1.402z" inkscape:connector-curvature="0"/>
      <path id="path266" style="fill-rule:evenodd;fill:#d7dffe" d="m9.906 16.993 1.242-0.199c-0.347 0-0.839 0.027-1.48 0.078l-1.121 0.203c0.586-0.055 1.039-0.082 1.359-0.082z" inkscape:connector-curvature="0"/>
      <g id="g268">
        <g id="g270">
          <g id="g276">
            <path id="path284" style="fill-rule:evenodd;fill:url(#radialGradient278)" d="m27.027 19.474c0.161-0.293 0.243-0.758 0.243-1.399 0-0.293 0.023-0.801 0.078-1.519 0-0.348-0.028-0.602-0.078-0.762-0.055-0.188-1.43-0.84-4.122-1.961-2.64-1.094-4.281-1.719-4.921-1.879-0.532-0.133-3.039 0.055-7.52 0.563-4.371 0.476-6.691 0.785-6.961 0.917-0.238 0.133-0.316 0.829-0.238 2.083 0.078 1.199 0.199 1.957 0.359 2.277 0.16 0.293 1.774 1.32 4.84 3.082 3.094 1.758 4.988 2.707 5.68 2.84 0.988 0.183 4.949-0.989 11.883-3.52 0.371-0.215 0.625-0.457 0.757-0.722z" inkscape:connector-curvature="0"/>
          </g>
        </g>
      </g>
      <g id="g286">
        <g id="g288">
          <g id="g294">
            <path id="path302" style="fill-rule:evenodd;fill:url(#radialGradient296)" d="m27.27 18.075c0-0.293 0.023-0.801 0.078-1.519 0-0.348-0.028-0.602-0.078-0.762-0.055-0.188-1.43-0.84-4.122-1.961-2.64-1.094-4.281-1.719-4.921-1.879l-0.481-0.039c0 2.801-0.012 4.48-0.039 5.039-0.055 1.52-0.211 2.695-0.48 3.52-0.399 1.175-1.161 2.281-2.278 3.32 1.414-0.293 3.625-0.934 6.637-1.922 2.723-0.906 4.281-1.465 4.684-1.68 0.371-0.211 0.625-0.453 0.757-0.718 0.161-0.293 0.243-0.758 0.243-1.399z" inkscape:connector-curvature="0"/>
          </g>
        </g>
      </g>
      <g id="g304">
        <g id="g306">
          <g id="g312">
            <path id="path322" style="fill-rule:evenodd;fill:url(#linearGradient314)" d="m27.27 18.075c0-0.293 0.023-0.801 0.078-1.519 0-0.348-0.028-0.602-0.078-0.762-0.055-0.188-1.43-0.84-4.122-1.961-2.64-1.094-4.281-1.719-4.921-1.879-0.532-0.133-3.039 0.055-7.52 0.563-4.371 0.476-6.691 0.785-6.961 0.917-0.293 0.161-0.359 1.067-0.199 2.719 0.453 0.43 1.015 0.602 1.68 0.52 0.695-0.051 1.308-0.383 1.839-1 0.668-0.746 1.254-1.199 1.762-1.36 0.613-0.183 1.227 0 1.84 0.563 0.695 0.613 1.559 0.918 2.602 0.918 1.093 0 1.957-0.348 2.597-1.039 1.336-1.414 2.496-1.336 3.481 0.238 0.453 0.723 0.988 1.133 1.601 1.242 0.613 0.133 1.184-0.015 1.719-0.441 0.586-0.426 1.187-0.559 1.801-0.399 0.64 0.184 1.039 0.692 1.199 1.52 0.16 0.746 0.668 1.266 1.52 1.559 0.027-0.239 0.054-0.372 0.082-0.399z" inkscape:connector-curvature="0"/>
          </g>
        </g>
      </g>
      <g id="g324">
        <g id="g326">
          <g id="g332">
            <path id="path340" style="fill-rule:evenodd;fill:url(#linearGradient334)" d="m27.27 18.075c0-0.293 0.023-0.801 0.078-1.519 0-0.348-0.028-0.602-0.078-0.762-0.055-0.188-1.43-0.84-4.122-1.961-2.64-1.094-4.281-1.719-4.921-1.879l-0.2-0.039v1.879l-0.039 0.039c0.532 0.16 0.985 0.547 1.36 1.16 0.453 0.723 0.988 1.133 1.601 1.242 0.613 0.133 1.184-0.015 1.719-0.441 0.586-0.426 1.187-0.559 1.801-0.399 0.64 0.184 1.039 0.692 1.199 1.52 0.16 0.746 0.668 1.266 1.52 1.559 0.027-0.239 0.054-0.372 0.082-0.399z" inkscape:connector-curvature="0"/>
          </g>
        </g>
      </g>
      <path id="path342" style="fill-rule:evenodd;fill:#ffffff;fill-opacity:.2" d="m19.746 21.954c0.883-0.32 1.297-0.734 1.242-1.238-0.054-0.481-0.375-0.657-0.961-0.524-0.531 0.137-0.851 0.508-0.961 1.121-0.105 0.614 0.122 0.829 0.68 0.641z" inkscape:connector-curvature="0"/>
      <path id="path344" style="fill-rule:evenodd;fill:#ffffff;fill-opacity:.2" d="m19.629 19.556c0.586-0.27 0.867-0.629 0.84-1.082-0.028-0.426-0.309-0.602-0.84-0.52-0.508 0.055-0.734 0.375-0.68 0.961 0.051 0.586 0.278 0.801 0.68 0.641z" inkscape:connector-curvature="0"/>
      <path id="path346" style="fill-rule:evenodd;fill:#ffffff;fill-opacity:.2" d="m23.746 20.192c0.961-0.293 1.43-0.812 1.402-1.558-0.027-0.746-0.453-1.028-1.281-0.84-0.746 0.16-1.121 0.652-1.121 1.48 0.027 0.828 0.363 1.133 1 0.918z" inkscape:connector-curvature="0"/>
      <path id="path348" style="fill-rule:evenodd;fill:#ffffff;fill-opacity:.2" d="m12.43 22.075c1.011 0.293 1.519 0.039 1.519-0.762 0-0.824-0.429-1.238-1.281-1.238-0.773 0-1.16 0.277-1.16 0.84-0.028 0.559 0.281 0.945 0.922 1.16z" inkscape:connector-curvature="0"/>
      <path id="path350" style="fill-rule:evenodd;fill:#ffffff;fill-opacity:.2" d="m14.547 19.474c1.254 0.242 1.801-0.133 1.641-1.118-0.161-0.988-0.708-1.468-1.641-1.441-0.852 0.027-1.277 0.414-1.277 1.16s0.425 1.211 1.277 1.399z" inkscape:connector-curvature="0"/>
      <path id="path352" style="fill-rule:evenodd;fill:#ffffff;fill-opacity:.2" d="m7.906 19.673c0.989 0.32 1.403 0.043 1.242-0.84-0.132-0.852-0.812-1.25-2.039-1.199-0.8 0.027-1.015 0.32-0.64 0.879 0.343 0.562 0.824 0.949 1.437 1.16z" inkscape:connector-curvature="0"/>
    </g>
  </g>
<metadata><rdf:RDF><cc:Work><dc:format>image/svg+xml</dc:format><dc:type rdf:resource="http://purl.org/dc/dcmitype/StillImage"/><cc:license rdf:resource="http://creativecommons.org/licenses/publicdomain/"/><dc:publisher><cc:Agent rdf:about="http://openclipart.org/"><dc:title>Openclipart</dc:title></cc:Agent></dc:publisher></cc:Work><cc:License rdf:about="http://creativecommons.org/licenses/publicdomain/"><cc:permits rdf:resource="http://creativecommons.org/ns#Reproduction"/><cc:permits rdf:resource="http://creativecommons.org/ns#Distribution"/><cc:permits rdf:resource="http://creativecommons.org/ns#DerivativeWorks"/></cc:License></rdf:RDF></metadata></svg>
