<?xml version="1.0" encoding="UTF-8" standalone="no"?>
<!-- Created with Inkscape (http://www.inkscape.org/) -->
<svg xmlns:inkscape="http://www.inkscape.org/namespaces/inkscape" xmlns:rdf="http://www.w3.org/1999/02/22-rdf-syntax-ns#" xmlns="http://www.w3.org/2000/svg" xmlns:xlink="http://www.w3.org/1999/xlink" xmlns:ns1="http://sozi.baierouge.fr" xmlns:cc="http://creativecommons.org/ns#" xmlns:sodipodi="http://sodipodi.sourceforge.net/DTD/sodipodi-0.dtd" xmlns:dc="http://purl.org/dc/elements/1.1/" id="svg2" xml:space="preserve" viewBox="0 0 32.199 30.91" version="1.1" inkscape:version="0.91 r13725">
  <defs id="defs6">
    <linearGradient id="linearGradient24" y2="-16349" gradientUnits="userSpaceOnUse" x2="15.035" gradientTransform="matrix(.00011722 -.8 .8 -.0008 13081 11.427)" y1="-16349" x1="8.21">
      <stop id="stop26" style="stop-color:#8f8f8f" offset="0"/>
      <stop id="stop28" style="stop-color:#e8e8e8" offset=".22750"/>
      <stop id="stop30" style="stop-color:#696969" offset="1"/>
    </linearGradient>
    <linearGradient id="linearGradient44" y2="-13813" gradientUnits="userSpaceOnUse" x2="-1910.7" gradientTransform="matrix(.21808 -.76968 .76968 .21808 11051 1552.9)" y1="-13813" x1="-1919.9">
      <stop id="stop46" style="stop-color:#e8e8e8" offset="0"/>
      <stop id="stop48" style="stop-color:#ededed" offset="1"/>
    </linearGradient>
    <linearGradient id="linearGradient62" y2="-13813" gradientUnits="userSpaceOnUse" x2="-1910.7" gradientTransform="matrix(.21808 -.76968 .76968 .21808 11051 1552.8)" y1="-13813" x1="-1919.9">
      <stop id="stop64" style="stop-color:#e8e8e8" offset="0"/>
      <stop id="stop66" style="stop-color:#878787" offset="1"/>
    </linearGradient>
    <linearGradient id="linearGradient80" y2="-17618" gradientUnits="userSpaceOnUse" x2="1518.9" gradientTransform="matrix(-.1364 -.78832 .78832 -.1364 14102 -1193.3)" y1="-17618" x1="1517.5">
      <stop id="stop82" style="stop-color:#8f8f8f" offset="0"/>
      <stop id="stop84" style="stop-color:#e8e8e8" offset=".22750"/>
      <stop id="stop86" style="stop-color:#696969" offset="1"/>
    </linearGradient>
    <linearGradient id="linearGradient100" y2="-16330" gradientUnits="userSpaceOnUse" x2="16338" gradientTransform="matrix(-.8 0 0 -.8 13086 -13057)" y1="-16330" x1="16336">
      <stop id="stop102" style="stop-color:#d39825" offset="0"/>
      <stop id="stop104" style="stop-color:#cf9524" offset=".17650"/>
      <stop id="stop106" style="stop-color:#c48d22" offset=".36470"/>
      <stop id="stop108" style="stop-color:#b07f1f" offset=".56080"/>
      <stop id="stop110" style="stop-color:#956b1a" offset=".7608"/>
      <stop id="stop112" style="stop-color:#725214" offset=".96080"/>
      <stop id="stop114" style="stop-color:#6b4d12" offset="1"/>
    </linearGradient>
    <linearGradient id="linearGradient128" y2="-16327" gradientUnits="userSpaceOnUse" x2="16340" gradientTransform="matrix(-.8 0 0 -.8 13086 -13057)" y1="-16327" x1="16330">
      <stop id="stop130" style="stop-color:#d39825" offset="0"/>
      <stop id="stop132" style="stop-color:#cf9524" offset=".17650"/>
      <stop id="stop134" style="stop-color:#c48d22" offset=".36470"/>
      <stop id="stop136" style="stop-color:#b07f1f" offset=".56080"/>
      <stop id="stop138" style="stop-color:#956b1a" offset=".7608"/>
      <stop id="stop140" style="stop-color:#725214" offset=".96080"/>
      <stop id="stop142" style="stop-color:#6b4d12" offset="1"/>
    </linearGradient>
    <linearGradient id="linearGradient162" y2="-16327" gradientUnits="userSpaceOnUse" x2="16343" gradientTransform="matrix(-.8 0 0 -.8 13086 -13057)" y1="-16327" x1="16340">
      <stop id="stop164" style="stop-color:#d39825" offset="0"/>
      <stop id="stop166" style="stop-color:#cf9524" offset=".17650"/>
      <stop id="stop168" style="stop-color:#c48d22" offset=".36470"/>
      <stop id="stop170" style="stop-color:#b07f1f" offset=".56080"/>
      <stop id="stop172" style="stop-color:#956b1a" offset=".7608"/>
      <stop id="stop174" style="stop-color:#725214" offset=".96080"/>
      <stop id="stop176" style="stop-color:#6b4d12" offset="1"/>
    </linearGradient>
    <linearGradient id="linearGradient190" y2="-16324" gradientUnits="userSpaceOnUse" x2="16345" gradientTransform="matrix(-.8 0 0 -.8 13086 -13057)" y1="-16324" x1="16334">
      <stop id="stop192" style="stop-color:#d39825" offset="0"/>
      <stop id="stop194" style="stop-color:#cf9524" offset=".17650"/>
      <stop id="stop196" style="stop-color:#c48d22" offset=".36470"/>
      <stop id="stop198" style="stop-color:#b07f1f" offset=".56080"/>
      <stop id="stop200" style="stop-color:#956b1a" offset=".7608"/>
      <stop id="stop202" style="stop-color:#725214" offset=".96080"/>
      <stop id="stop204" style="stop-color:#6b4d12" offset="1"/>
    </linearGradient>
    <linearGradient id="linearGradient224" y2="-13440" gradientUnits="userSpaceOnUse" x2="-2087.1" gradientTransform="matrix(.24544 -.76144 .76144 .24544 10764 1715.7)" y1="-13440" x1="-2106.3">
      <stop id="stop226" style="stop-color:#f4d935" offset="0"/>
      <stop id="stop228" style="stop-color:#d1b928" offset="1"/>
    </linearGradient>
    <linearGradient id="linearGradient242" y2="-12875" gradientUnits="userSpaceOnUse" x2="-2352.1" gradientTransform="matrix(.28592 -.7472 .7472 .28592 10317 1930)" y1="-12875" x1="-2369.1">
      <stop id="stop244" style="stop-color:#bea823" offset="0"/>
      <stop id="stop246" style="stop-color:#baa422" offset=".3725"/>
      <stop id="stop248" style="stop-color:#ae9a20" offset=".77250"/>
      <stop id="stop250" style="stop-color:#a3901f" offset="1"/>
    </linearGradient>
    <clipPath id="clipPath260">
      <path id="path262" d="m11.188 10.849c0.374-0.027 1.253-0.293 2.64-0.801-0.055-1.254-0.336-2.308-0.84-3.16-0.508-0.855-1.093-1.281-1.761-1.281-0.719 0-1.332 0.465-1.84 1.398-0.504 0.961-0.758 2.11-0.758 3.442v0.199c1.012 0.187 1.863 0.254 2.559 0.203z" inkscape:connector-curvature="0"/>
    </clipPath>
    <clipPath id="clipPath268">
      <path id="path270" d="m4.0153-18.214h7.5v4.72h-7.5v-4.72z" inkscape:connector-curvature="0"/>
    </clipPath>
    <radialGradient id="radialGradient272" gradientUnits="userSpaceOnUse" cy="-17.351" cx="8.0498" r="3.25">
      <stop id="stop274" style="stop-color:#ffffff;stop-opacity:.37650" offset="0"/>
      <stop id="stop276" style="stop-color:#ffffff;stop-opacity:0" offset=".86670"/>
      <stop id="stop280" style="stop-color:#ffffff;stop-opacity:0" offset="1"/>
    </radialGradient>
    <mask id="mask282">
      <g id="g284">
        <g id="g286" clip-path="url(#clipPath268)">
          <path id="path288" style="fill:url(#radialGradient272)" d="m4.0153-18.214h7.5v4.72h-7.5v-4.72z" inkscape:connector-curvature="0"/>
        </g>
      </g>
    </mask>
    <radialGradient id="radialGradient292" gradientUnits="userSpaceOnUse" cy="-17.351" cx="8.0498" r="3.25">
      <stop id="stop294" style="stop-color:#000000" offset="0"/>
      <stop id="stop296" style="stop-color:#000000" offset=".86670"/>
      <stop id="stop298" style="stop-color:#000000" offset="1"/>
    </radialGradient>
    <linearGradient id="linearGradient312" y2="-10694" gradientUnits="userSpaceOnUse" x2="-3089.7" gradientTransform="matrix(.4292 -.67512 .67512 .4292 8556.8 2512.3)" y1="-10694" x1="-3093.5">
      <stop id="stop314" style="stop-color:#f4d935" offset="0"/>
      <stop id="stop316" style="stop-color:#d1b928" offset="1"/>
    </linearGradient>
    <linearGradient id="linearGradient340" y2="-16803" gradientUnits="userSpaceOnUse" x2="514.68" gradientTransform="matrix(-.04736 -.79856 .79856 -.04736 13462 -374.48)" y1="-16803" x1="511.73">
      <stop id="stop342" style="stop-color:#5f4e29" offset="0"/>
      <stop id="stop344" style="stop-color:#271d09" offset=".85880"/>
      <stop id="stop346" style="stop-color:#271d09" offset="1"/>
    </linearGradient>
    <linearGradient id="linearGradient362" y2="-16829" gradientUnits="userSpaceOnUse" x2="547.4" gradientTransform="matrix(-.0508 -.7984 .7984 -.0508 13489 -404.27)" y1="-16829" x1="544.65">
      <stop id="stop364" style="stop-color:#5f4e29" offset="0"/>
      <stop id="stop366" style="stop-color:#271d09" offset=".85880"/>
      <stop id="stop368" style="stop-color:#271d09" offset="1"/>
    </linearGradient>
    <clipPath id="clipPath376">
      <path id="path378" d="m22.629 10.568c-0.188 0.425-0.293 0.945-0.32 1.558l1.918 1.364c0.136-0.403 0.203-0.817 0.203-1.243 0-0.64-0.11-1.187-0.321-1.64-0.187-0.453-0.429-0.68-0.722-0.68s-0.547 0.215-0.758 0.641z" inkscape:connector-curvature="0"/>
    </clipPath>
    <clipPath id="clipPath384">
      <path id="path386" d="m21.515-15.948h3.75v2.2925h-3.75v-2.2925z" inkscape:connector-curvature="0"/>
    </clipPath>
    <radialGradient id="radialGradient388" gradientUnits="userSpaceOnUse" cy="-15.101" cx="23.25" r="1.3125">
      <stop id="stop390" style="stop-color:#ffffff;stop-opacity:.37650" offset="0"/>
      <stop id="stop392" style="stop-color:#ffffff;stop-opacity:0" offset=".86670"/>
      <stop id="stop394" style="stop-color:#ffffff;stop-opacity:0" offset="1"/>
    </radialGradient>
    <mask id="mask396">
      <g id="g398">
        <g id="g400" clip-path="url(#clipPath384)">
          <path id="path402" style="fill:url(#radialGradient388)" d="m21.515-15.948h3.75v2.2925h-3.75v-2.2925z" inkscape:connector-curvature="0"/>
        </g>
      </g>
    </mask>
    <radialGradient id="radialGradient406" gradientUnits="userSpaceOnUse" cy="-15.101" cx="23.25" r="1.3125">
      <stop id="stop408" style="stop-color:#000000" offset="0"/>
      <stop id="stop410" style="stop-color:#000000" offset="1"/>
    </radialGradient>
    <linearGradient id="linearGradient424" y2="-16807" gradientUnits="userSpaceOnUse" x2="524.44" gradientTransform="matrix(-.0484 -.79856 .79856 -.0484 13470 -383.34)" y1="-16807" x1="521.96">
      <stop id="stop426" style="stop-color:#d39825" offset="0"/>
      <stop id="stop428" style="stop-color:#cf9524" offset=".17650"/>
      <stop id="stop430" style="stop-color:#c48d22" offset=".36470"/>
      <stop id="stop432" style="stop-color:#b07f1f" offset=".56080"/>
      <stop id="stop434" style="stop-color:#956b1a" offset=".7608"/>
      <stop id="stop436" style="stop-color:#725214" offset=".96080"/>
      <stop id="stop438" style="stop-color:#6b4d12" offset="1"/>
    </linearGradient>
    <linearGradient id="linearGradient452" y2="-16760" gradientUnits="userSpaceOnUse" x2="471.39" gradientTransform="matrix(-.0436 -.7988 .7988 -.0436 13433 -341.62)" y1="-16760" x1="470.01">
      <stop id="stop454" style="stop-color:#f1cc7d" offset="0"/>
      <stop id="stop456" style="stop-color:#d39825" offset=".85880"/>
      <stop id="stop458" style="stop-color:#d39825" offset="1"/>
    </linearGradient>
    <clipPath id="clipPath468">
      <path id="path470" d="m18.586 19.849-0.078-0.082-0.36-0.16-0.039-0.039c-1.254 0.054-2.297 0.238-3.121 0.558-0.851 0.348-1.281 0.735-1.281 1.16 0 0.454 0.481 0.856 1.441 1.204 0.961 0.316 2.122 0.476 3.481 0.476 1.199 0 2.266-0.133 3.199-0.398l-0.082-0.121c-0.133-0.426-0.293-0.813-0.476-1.161-1.176-0.64-2.067-1.117-2.684-1.437z" inkscape:connector-curvature="0"/>
    </clipPath>
    <clipPath id="clipPath476">
      <path id="path478" d="m10.265-12.649h11.25v18.126h-11.25v-18.126z" inkscape:connector-curvature="0"/>
    </clipPath>
    <radialGradient id="radialGradient480" gradientUnits="userSpaceOnUse" cy="-3.8003" cx="17.3" r="6.1625">
      <stop id="stop482" style="stop-color:#ffffff;stop-opacity:.37650" offset="0"/>
      <stop id="stop484" style="stop-color:#ffffff;stop-opacity:0" offset=".86670"/>
      <stop id="stop486" style="stop-color:#ffffff;stop-opacity:0" offset="1"/>
    </radialGradient>
    <mask id="mask488">
      <g id="g490">
        <g id="g492" clip-path="url(#clipPath476)">
          <path id="path494" style="fill:url(#radialGradient480)" d="m10.265-12.649h11.25v18.126h-11.25v-18.126z" inkscape:connector-curvature="0"/>
        </g>
      </g>
    </mask>
    <radialGradient id="radialGradient498" gradientUnits="userSpaceOnUse" cy="-3.8003" cx="17.3" r="6.1625">
      <stop id="stop500" style="stop-color:#000000" offset="0"/>
      <stop id="stop502" style="stop-color:#000000" offset="1"/>
    </radialGradient>
  </defs>
  <g id="g10" transform="matrix(1.25 0 0 -1.25 0 30.91)">
    <g id="g12">
      <g id="g14">
        <g id="g16">
          <g id="g22">
            <path id="path32" style="fill-rule:evenodd;fill:url(#linearGradient24)" d="m3.348 13.247c0.054 0.481-0.067 0.789-0.36 0.922l-0.359 0.039c-0.188 0-0.348-0.027-0.481-0.082-0.425-0.133-0.668-0.425-0.718-0.879-0.028-0.398 0.078-0.679 0.316-0.839 0.348-0.188 0.695-0.188 1.043 0 0.32 0.187 0.508 0.468 0.559 0.839zm-2.762 3.719c0.082 0.641 0.402 0.973 0.961 1 1.094 0.027 1.867-0.504 2.32-1.598 0.403-0.988 0.43-1.64 0.082-1.96 0.348-0.426 0.321-1.067-0.082-1.918-0.453-0.934-1.226-1.227-2.32-0.883-0.559 0.187-0.879 0.613-0.961 1.281-0.106 0.691 0.094 1.227 0.602 1.602l0.359 0.277-0.359 0.359c-0.508 0.563-0.708 1.176-0.602 1.84zm2.762-1.199c-0.051 0.402-0.239 0.734-0.559 1-0.348 0.32-0.695 0.43-1.043 0.32-0.238-0.105-0.344-0.375-0.316-0.801 0.05-0.453 0.293-0.812 0.718-1.078l0.481-0.242 0.359-0.039c0.293 0.027 0.414 0.309 0.36 0.84z" inkscape:connector-curvature="0"/>
          </g>
        </g>
      </g>
      <g id="g34">
        <g id="g36">
          <g id="g42">
            <path id="path50" style="fill-rule:evenodd;fill:url(#linearGradient44)" d="m1.789 13.966c-0.453-0.105-0.695-0.387-0.723-0.84-0.023-0.425 0.082-0.718 0.321-0.879 0.32-0.214 0.656-0.214 1 0 0.32 0.188 0.508 0.465 0.562 0.84 0.078 0.481-0.027 0.774-0.32 0.879l-0.359 0.082-0.481-0.082zm-1.601 2.84c0.109 0.641 0.441 0.973 1 1 1.093 0.027 1.867-0.504 2.32-1.598 0.398-0.988 0.414-1.64 0.039-1.961 0.375-0.398 0.359-1.039-0.039-1.918-0.453-0.961-1.227-1.269-2.32-0.921-0.559 0.214-0.895 0.652-1 1.32-0.106 0.691 0.093 1.226 0.601 1.601l0.399 0.278-0.399 0.359c-0.508 0.563-0.707 1.176-0.601 1.84zm1.199 0.121c-0.239-0.105-0.344-0.375-0.321-0.801 0.028-0.48 0.27-0.84 0.723-1.078l0.481-0.242 0.359-0.039c0.293 0.027 0.398 0.305 0.32 0.84-0.054 0.402-0.242 0.734-0.562 1-0.344 0.32-0.68 0.426-1 0.32z" inkscape:connector-curvature="0"/>
          </g>
        </g>
      </g>
      <g id="g52">
        <g id="g54">
          <g id="g60">
            <path id="path68" style="fill-rule:evenodd;fill:url(#linearGradient62)" d="m1.629 13.888c-0.453-0.105-0.695-0.387-0.723-0.84-0.023-0.426 0.082-0.719 0.321-0.879 0.32-0.215 0.656-0.215 1 0 0.32 0.184 0.507 0.465 0.562 0.84 0.106 0.504 0 0.797-0.32 0.879l-0.36 0.078-0.48-0.078zm-1.602 2.84c0.106 0.64 0.442 0.973 1 1 1.094 0.027 1.868-0.508 2.321-1.602 0.398-0.984 0.414-1.636 0.039-1.957 0.375-0.402 0.359-1.043-0.039-1.922-0.453-0.961-1.227-1.265-2.321-0.918-0.558 0.211-0.894 0.653-1 1.321-0.105 0.691 0.094 1.222 0.602 1.597l0.398 0.282-0.398 0.359c-0.508 0.559-0.707 1.172-0.602 1.84zm2.762-1.199c-0.055 0.398-0.242 0.734-0.562 1-0.344 0.32-0.68 0.425-1 0.32-0.239-0.109-0.344-0.375-0.321-0.801 0.028-0.48 0.27-0.84 0.723-1.082l0.48-0.238 0.36-0.039c0.293 0.027 0.398 0.304 0.32 0.84z" inkscape:connector-curvature="0"/>
          </g>
        </g>
      </g>
      <g id="g70">
        <g id="g72">
          <g id="g78">
            <path id="path88" style="fill-rule:evenodd;fill:url(#linearGradient80)" d="m8.148 12.927-4.32 0.641c-0.242-0.028-0.359 0.105-0.359 0.398 0 0.188 0.066 0.32 0.199 0.402 0.055 0.051 0.105 0.079 0.16 0.079l4.32-0.641v-0.879z" inkscape:connector-curvature="0"/>
          </g>
        </g>
      </g>
      <g id="g90">
        <g id="g92">
          <g id="g98">
            <path id="path116" style="fill-rule:evenodd;fill:url(#linearGradient100)" d="m15.988 8.048c0.051 0.211 0.348 0.387 0.879 0.52 0.266 0.078 0.535 0.133 0.801 0.16v-1.199c-0.027-0.453-0.016-1.2 0.039-2.243-0.238-0.265-0.531-0.398-0.879-0.398-0.242 0-0.441 0.094-0.601 0.281-0.161 0.211-0.239 0.438-0.239 0.68v2.199z" inkscape:connector-curvature="0"/>
          </g>
        </g>
      </g>
      <g id="g118">
        <g id="g120">
          <g id="g126">
            <path id="path144" style="fill-rule:evenodd;fill:url(#linearGradient128)" d="m15.988 5.529c0.051 0 0.172-0.082 0.36-0.243 0.214-0.16 0.375-0.238 0.48-0.238 0.16-0.027 0.453 0.055 0.879 0.238l0.082 0.723 2.32-0.121c1.067-0.055 1.637-0.172 1.719-0.359 0.055-0.375-0.215-0.536-0.801-0.481l0.36-0.039c0.187 0 0.293-0.082 0.32-0.242 0.027-0.184-0.055-0.371-0.238-0.559-0.16-0.16-0.387-0.226-0.68-0.199l-0.359 0.078c0.34-0.09 0.461-0.234 0.359-0.437-0.137-0.348-0.387-0.496-0.762-0.442-0.453 0.16-1.265 0.293-2.441 0.399-0.691 0.082-1.156 0.176-1.398 0.281-0.348 0.105-0.575 0.281-0.68 0.52-0.078 0.242-0.028 0.507 0.16 0.8 0.105 0.133 0.215 0.239 0.32 0.321z" inkscape:connector-curvature="0"/>
          </g>
        </g>
      </g>
      <path id="path146" style="fill-rule:evenodd;fill:#8a670d" d="m17.586 3.607c-0.691 0.082-1.156 0.176-1.398 0.281-0.348 0.105-0.575 0.281-0.68 0.52v0.281c0.054-0.188 0.293-0.293 0.719-0.321 1.519-0.16 2.468-0.335 2.839-0.519 0.403-0.16 0.907-0.242 1.52-0.242 0.082 0.027 0.148 0.109 0.203 0.242 0.051-0.055 0.051-0.121 0-0.199-0.137-0.348-0.387-0.496-0.762-0.442-0.453 0.16-1.265 0.293-2.441 0.399z" inkscape:connector-curvature="0"/>
      <path id="path148" style="fill-rule:evenodd;fill:#8a670d" d="m20.867 4.646c0.293-0.16 0.469-0.039 0.52 0.359 0.187 0 0.293-0.078 0.32-0.238 0.027-0.188-0.055-0.375-0.238-0.559-0.133-0.136-0.348-0.203-0.641-0.203l-0.039 0.164c-0.055 0.106-0.187 0.227-0.402 0.36-0.211 0.132-0.348 0.199-0.399 0.199l0.239 0.039c0.265 0 0.48-0.039 0.64-0.121z" inkscape:connector-curvature="0"/>
      <path id="path150" style="fill-rule:evenodd;fill:#8a670d" d="m21.387 5.048c0.027 0.106 0.015 0.184-0.039 0.238-0.028 0-0.121 0.055-0.282 0.161l-0.199 0.121 0.563-0.121c0.105 0 0.199 0.066 0.277 0.199l0.121-0.117c0.027-0.27-0.121-0.43-0.441-0.481z" inkscape:connector-curvature="0"/>
      <g id="g152">
        <g id="g154">
          <g id="g160">
            <path id="path178" style="fill-rule:evenodd;fill:url(#linearGradient162)" d="m14.348 6.888 0.039-4.32c-0.266-0.321-0.586-0.481-0.957-0.481-0.242 0-0.453 0.121-0.641 0.36-0.16 0.242-0.242 0.519-0.242 0.839v2.762c0.055 0.266 0.375 0.481 0.961 0.641 0.293 0.105 0.574 0.172 0.84 0.199z" inkscape:connector-curvature="0"/>
          </g>
        </g>
      </g>
      <g id="g180">
        <g id="g182">
          <g id="g188">
            <path id="path206" style="fill-rule:evenodd;fill:url(#linearGradient190)" d="m17.949 2.286 0.36-0.039c0.183 0 0.304-0.105 0.359-0.32 0.027-0.211-0.066-0.437-0.281-0.68-0.16-0.187-0.387-0.265-0.68-0.238l-0.437 0.078c0.371-0.105 0.503-0.293 0.398-0.558-0.055-0.161-0.176-0.293-0.359-0.403-0.161-0.105-0.321-0.144-0.481-0.117-0.64 0.211-1.508 0.387-2.601 0.52-0.719 0.078-1.227 0.187-1.52 0.32-0.344 0.133-0.57 0.359-0.68 0.68-0.105 0.293-0.05 0.613 0.161 0.961 0.105 0.16 0.226 0.293 0.359 0.398 0.055 0 0.187-0.105 0.402-0.32 0.211-0.188 0.371-0.282 0.481-0.282 0.183-0.027 0.504 0.067 0.957 0.282v1l2.562-0.239c1.117-0.054 1.719-0.203 1.797-0.441 0.082-0.453-0.184-0.652-0.797-0.602z" inkscape:connector-curvature="0"/>
          </g>
        </g>
      </g>
      <path id="path208" style="fill-rule:evenodd;fill:#8a670d" d="m16.629 1.646-0.563 0.082 0.403 0.039c0.32 0.027 0.597 0.016 0.84-0.039 0.211-0.055 0.425-0.149 0.64-0.281 0.133-0.051 0.25 0.015 0.36 0.199l0.238 0.48c0.215-0.211 0.16-0.504-0.16-0.879-0.16-0.214-0.465-0.293-0.918-0.242l-0.039 0.121c-0.16 0.215-0.254 0.336-0.282 0.364-0.109 0.078-0.281 0.132-0.519 0.156z" inkscape:connector-curvature="0"/>
      <path id="path210" style="fill-rule:evenodd;fill:#8a670d" d="m18.746 2.888c0.055-0.293-0.105-0.492-0.476-0.602-0.243 0.348-0.524 0.536-0.84 0.563l-0.563 0.078 0.442 0.082c0.32 0.024 0.574 0 0.757-0.082 0.297-0.16 0.496-0.133 0.602 0.082l0.078-0.121z" inkscape:connector-curvature="0"/>
      <path id="path212" style="fill-rule:evenodd;fill:#8a670d" d="m12.109 2.286c0-0.425 0.2-0.703 0.598-0.839 0.641-0.161 1.574-0.371 2.801-0.641 0.906-0.316 1.492-0.398 1.762-0.238 0.238 0.133 0.316 0.265 0.238 0.398 0.16-0.105 0.215-0.25 0.16-0.437-0.055-0.161-0.176-0.293-0.359-0.403-0.161-0.105-0.321-0.144-0.481-0.117-0.64 0.211-1.508 0.387-2.601 0.52-0.719 0.078-1.227 0.187-1.52 0.32-0.344 0.133-0.57 0.359-0.68 0.68-0.054 0.187-0.027 0.437 0.082 0.757z" inkscape:connector-curvature="0"/>
      <g id="g214">
        <g id="g216">
          <g id="g222">
            <path id="path230" style="fill-rule:evenodd;fill:url(#linearGradient224)" d="m18.227 23.048c2.507-0.347 4.054-0.519 4.64-0.519 0.879 0 1.547-0.176 2-0.524 0.293-0.238 0.52-0.613 0.68-1.117 0.082-0.348 0.133-1.867 0.16-4.562 0.027-2.454 0.027-4.012 0-4.68v-1.16c-0.027-0.399-0.145-0.758-0.359-1.078-0.215-0.348-0.934-0.95-2.16-1.801-1.067-0.774-1.84-1.281-2.321-1.52-1.359-0.746-2.375-1.121-3.039-1.121-1.945 0.242-3.441 0.36-4.48 0.36-0.614 0.027-1.762 0.16-3.442 0.402-1.703 0.238-2.718 0.387-3.039 0.437-0.558 0.082-0.933 0.321-1.121 0.723-0.293 0.531-0.453 1.613-0.476 3.238-0.11 2.586-0.161 4.481-0.161 5.68 0.028 2.133 0.332 3.402 0.918 3.801 0.696 0.508 1.922 1.226 3.68 2.16 2.027 1.121 3.32 1.695 3.879 1.723 0.75 0.023 2.297-0.122 4.641-0.442z" inkscape:connector-curvature="0"/>
          </g>
        </g>
      </g>
      <g id="g232">
        <g id="g234">
          <g id="g240">
            <path id="path252" style="fill-rule:evenodd;fill:url(#linearGradient242)" d="m25.547 20.888c0.082-0.398 0.121-1.094 0.121-2.082 0.105-3.465 0.121-5.852 0.039-7.156v-1.16c-0.027-0.403-0.145-0.762-0.359-1.082-0.215-0.348-0.934-0.946-2.16-1.801-1.067-0.774-1.84-1.278-2.321-1.52-0.215-0.133-0.719-0.347-1.519-0.64-0.801-0.293-1.309-0.454-1.52-0.481 0.238 0.481 0.36 1.055 0.36 1.723l-0.079 11.199 0.079 0.121c0.132 0.16 0.851 0.559 2.16 1.199 1.492 0.719 2.441 1.211 2.84 1.481 1.121 0.719 1.718 1.117 1.8 1.199 0.239-0.242 0.426-0.574 0.559-1z" inkscape:connector-curvature="0"/>
          </g>
        </g>
      </g>
      <path id="path254" style="fill-rule:evenodd;fill:#f4d935" d="m20.668 19.329c-1.52-0.722-2.348-1.16-2.48-1.32-0.747 0.051-3.079 0.293-7 0.719-2.985 0.32-4.84 0.453-5.559 0.398 0.133 0.215 0.266 0.375 0.398 0.481 0.696 0.508 1.922 1.226 3.68 2.16 2.027 1.121 3.32 1.695 3.879 1.723 1.844 0.078 4.934-0.243 9.281-0.961 1.121-0.161 1.828-0.375 2.121-0.641-0.293-0.293-0.707-0.613-1.242-0.961-0.398-0.238-1.426-0.773-3.078-1.598z" inkscape:connector-curvature="0"/>
      <g id="g256">
        <g id="g258" clip-path="url(#clipPath260)">
          <g id="g264" transform="matrix(.8 0 0 -1.483 4.7877 -15.285)">
            <g id="g290" mask="url(#mask282)">
              <path id="path300" style="fill-rule:evenodd;fill:url(#radialGradient292)" d="m11.188 10.849c0.374-0.027 1.253-0.293 2.64-0.801-0.055-1.254-0.336-2.308-0.84-3.16-0.508-0.855-1.093-1.281-1.761-1.281-0.719 0-1.332 0.465-1.84 1.398-0.504 0.961-0.758 2.11-0.758 3.442v0.199c1.012 0.187 1.863 0.254 2.559 0.203z" inkscape:connector-curvature="0"/>
            </g>
          </g>
        </g>
      </g>
      <g id="g302">
        <g id="g304">
          <g id="g310">
            <path id="path318" style="fill-rule:evenodd;fill:url(#linearGradient312)" d="m8.188 10.767c0.773 0.48 1.253 0.762 1.441 0.84 0.586 0.293 1.094 0.453 1.519 0.48 0.719 0.028 1.321-0.226 1.801-0.758 0.426-0.453 0.598-0.882 0.52-1.281-0.082-0.375-0.348-0.691-0.801-0.961-0.48-0.293-1.082-0.437-1.801-0.437-1.226 0-2.32 0.265-3.281 0.797-0.316 0.187-0.41 0.386-0.277 0.601 0.105 0.188 0.398 0.426 0.879 0.719z" inkscape:connector-curvature="0"/>
          </g>
        </g>
      </g>
      <path id="path320" style="fill-rule:evenodd;fill:#9f7626" d="m9.949 11.767c0.293 0.133 0.598 0.226 0.918 0.281 0.215-0.055 0.414-0.148 0.602-0.281 0.426-0.266 0.691-0.453 0.801-0.559-0.508 0.266-1.094 0.442-1.762 0.52l-0.559 0.039z" inkscape:connector-curvature="0"/>
      <path id="path322" style="fill-rule:evenodd;fill:#9f7626" d="m7.906 10.568 0.68 0.441c0.453-0.16 0.801-0.32 1.043-0.48l0.68-0.481c-0.961 0.348-1.747 0.52-2.36 0.52h-0.043z" inkscape:connector-curvature="0"/>
      <path id="path324" style="fill-rule:evenodd;fill:#9f7626" d="m10.668 11.087 0.602-0.519c-0.75 0.32-1.481 0.535-2.204 0.64l-0.117 0.039 0.637 0.36c0.508-0.188 0.867-0.36 1.082-0.52z" inkscape:connector-curvature="0"/>
      <path id="path326" style="fill-rule:evenodd;fill:#bea71d" d="m13.469 10.048c-0.082-0.375-0.348-0.695-0.801-0.961-0.48-0.293-1.082-0.441-1.801-0.441-1.226 0-2.32 0.269-3.281 0.801-0.211 0.132-0.316 0.265-0.316 0.402 0.238 0 0.636-0.109 1.199-0.32 1.359-0.563 2.558-0.614 3.597-0.161 0.774 0.344 1.227 0.731 1.364 1.161l0.039-0.481z" inkscape:connector-curvature="0"/>
      <path id="path328" style="fill-rule:evenodd;fill:#978715" d="m20.508 12.087c0-0.398-0.078-0.734-0.238-1-0.188-0.265-0.403-0.398-0.641-0.398-0.242 0-0.441 0.133-0.602 0.398-0.187 0.266-0.281 0.602-0.281 1 0 0.375 0.094 0.696 0.281 0.961 0.161 0.266 0.36 0.399 0.602 0.399 0.238 0 0.453-0.133 0.641-0.399 0.16-0.265 0.238-0.586 0.238-0.961z" inkscape:connector-curvature="0"/>
      <g id="g330">
        <g id="g332">
          <g id="g338">
            <path id="path348" style="fill-rule:evenodd;fill:url(#linearGradient340)" d="m20.188 12.048c0-0.265-0.079-0.508-0.239-0.722-0.137-0.184-0.308-0.278-0.519-0.278-0.188 0-0.364 0.094-0.524 0.278-0.133 0.187-0.199 0.429-0.199 0.722s0.066 0.547 0.199 0.758c0.137 0.187 0.309 0.281 0.524 0.281 0.211 0 0.382-0.094 0.519-0.281 0.16-0.211 0.239-0.465 0.239-0.758z" inkscape:connector-curvature="0"/>
          </g>
        </g>
      </g>
      <path id="path350" style="fill-rule:evenodd;fill:#978715" d="m25.668 15.169c0-0.375-0.055-0.679-0.16-0.922-0.106-0.265-0.238-0.398-0.399-0.398-0.16 0-0.297 0.133-0.402 0.398-0.133 0.266-0.199 0.575-0.199 0.922 0 0.344 0.066 0.653 0.199 0.918 0.105 0.242 0.242 0.36 0.402 0.36 0.371 0 0.559-0.426 0.559-1.278z" inkscape:connector-curvature="0"/>
      <g id="g352">
        <g id="g354">
          <g id="g360">
            <path id="path370" style="fill-rule:evenodd;fill:url(#linearGradient362)" d="m25.43 15.169c0-0.64-0.149-0.961-0.442-0.961-0.32 0-0.48 0.321-0.48 0.961 0 0.637 0.16 0.957 0.48 0.957 0.293 0 0.442-0.32 0.442-0.957z" inkscape:connector-curvature="0"/>
          </g>
        </g>
      </g>
      <g id="g372">
        <g id="g374" clip-path="url(#clipPath376)">
          <g id="g380" transform="matrix(.8 0 0 -1.7448 4.7877 -14.099)">
            <g id="g404" mask="url(#mask396)">
              <path id="path412" style="fill-rule:evenodd;fill:url(#radialGradient406)" d="m22.629 10.568c-0.188 0.425-0.293 0.945-0.32 1.558l1.918 1.364c0.136-0.403 0.203-0.817 0.203-1.243 0-0.64-0.11-1.187-0.321-1.64-0.187-0.453-0.429-0.68-0.722-0.68s-0.547 0.215-0.758 0.641z" inkscape:connector-curvature="0"/>
            </g>
          </g>
        </g>
      </g>
      <g id="g414">
        <g id="g416">
          <g id="g422">
            <path id="path440" style="fill-rule:evenodd;fill:url(#linearGradient424)" d="m22.949 13.048c0.211 0.238 0.426 0.371 0.637 0.399 0.562 0.027 1.055-0.215 1.48-0.719 0.403-0.481 0.496-0.762 0.282-0.84-0.215-0.133-0.653-0.187-1.321-0.16-0.746 0-1.172 0.144-1.281 0.437-0.105 0.297-0.039 0.59 0.203 0.883z" inkscape:connector-curvature="0"/>
          </g>
        </g>
      </g>
      <g id="g442">
        <g id="g444">
          <g id="g450">
            <path id="path460" style="fill-rule:evenodd;fill:url(#linearGradient452)" d="m23.148 12.888c-0.027 0.293 0.172 0.441 0.598 0.441 0.32 0.028 0.629-0.109 0.922-0.402 0.32-0.266 0.426-0.453 0.32-0.559-0.054-0.054-0.242-0.054-0.558 0-0.43 0.106-0.668 0.161-0.723 0.161-0.344 0-0.531 0.117-0.559 0.359z" inkscape:connector-curvature="0"/>
          </g>
        </g>
      </g>
      <path id="path462" style="fill-rule:evenodd;fill:#f8e87c" d="m18.148 18.247c0.239 0.028 1.282 0.52 3.122 1.481 1.144 0.613 2.382 1.332 3.718 2.16-0.054-0.32-1.148-1.066-3.281-2.242-2.16-1.199-3.266-1.934-3.32-2.199-0.078-0.293-0.078-3.614 0-9.961-0.051-1.36-0.239-2.2-0.559-2.52l0.121 0.481c0.078 0.214 0.106 1.812 0.078 4.8-0.027 2.879-0.066 4.774-0.121 5.68-0.051 0.934-0.094 1.441-0.117 1.52-0.055 0.16-0.203 0.269-0.441 0.32-0.293 0.082-2.575 0.336-6.84 0.762-0.641 0.05-1.641 0.199-3 0.437l-1.84 0.363 6.039-0.64c1.121-0.133 2.414-0.254 3.879-0.36 1.469-0.109 2.32-0.136 2.562-0.082z" inkscape:connector-curvature="0"/>
      <g id="g464">
        <g id="g466" clip-path="url(#clipPath468)">
          <g id="g472" transform="matrix(.8 0 0 -.27584 4.7877 20.239)">
            <g id="g496" mask="url(#mask488)">
              <path id="path504" style="fill-rule:evenodd;fill:url(#radialGradient498)" d="m18.586 19.849-0.078-0.082-0.36-0.16-0.039-0.039c-1.254 0.054-2.297 0.238-3.121 0.558-0.851 0.348-1.281 0.735-1.281 1.16 0 0.454 0.481 0.856 1.441 1.204 0.961 0.316 2.122 0.476 3.481 0.476 1.199 0 2.266-0.133 3.199-0.398l-0.082-0.121c-0.133-0.426-0.293-0.813-0.476-1.161-1.176-0.64-2.067-1.117-2.684-1.437z" inkscape:connector-curvature="0"/>
            </g>
          </g>
        </g>
      </g>
      <path id="path506" style="fill-rule:evenodd;fill:#f8e87c" d="m17.547 20.009-0.879 1.238c-0.133 0.215-0.188 0.454-0.16 0.719 0 0.293 0.094 0.508 0.281 0.641 0.293 0.293 0.598 0.386 0.918 0.281l0.281-0.082c-0.082 0.187-0.148 0.387-0.199 0.602-0.082 0.425-0.066 0.695 0.039 0.8 0.399 0.348 0.867 0.52 1.399 0.52 0.293 0 0.546-0.121 0.761-0.36 0.16-0.214 0.239-0.414 0.239-0.601 0.007-0.031 0.007-0.066 0-0.098 0.097 0.121 0.191 0.196 0.281 0.219 0.558 0.078 0.922-0.066 1.078-0.441 0.16-0.371 0.082-0.918-0.238-1.641 0.238-0.156-0.188-0.531-1.282-1.117-0.933-0.481-1.437-0.735-1.519-0.762l-1 0.082z" inkscape:connector-curvature="0"/>
      <path id="path508" style="fill-rule:evenodd;fill:#efd433" d="m18.066 24.087c0.403 0.348 0.868 0.52 1.403 0.52 0.293 0 0.519-0.145 0.679-0.438 0.106-0.215 0.161-0.429 0.161-0.64v-0.243l0.121 0.204c0.105 0.16 0.211 0.25 0.316 0.277 0.563 0.082 0.922-0.066 1.082-0.438 0.16-0.375 0.078-0.921-0.242-1.64 0.215-0.16-0.211-0.535-1.277-1.121-0.133-0.078-0.442-0.254-0.922-0.52-0.239-0.133-0.438-0.215-0.598-0.242l-1.242 0.203c-0.238 0.504-0.465 0.879-0.68 1.117-0.133 0.188-0.187 0.43-0.16 0.723s0.121 0.519 0.281 0.68c0.348 0.265 0.664 0.347 0.961 0.238l0.239-0.078c-0.051 0.183-0.106 0.387-0.161 0.597-0.078 0.43-0.066 0.696 0.039 0.801z" inkscape:connector-curvature="0"/>
      <path id="path510" style="fill-rule:evenodd;fill:#dcc22f" d="m18.109 22.689-0.043 0.039 0.122-0.039c-0.188 0.531-0.254 0.933-0.2 1.199 0-0.055 0.051-0.082 0.16-0.082 0.161-0.051 0.266-0.066 0.321-0.039l0.16 0.039c0.16-0.293 0.277-0.625 0.359-1l0.121-0.477c-0.082-0.027-0.187 0-0.32 0.079-0.16 0.105-0.269 0.16-0.32 0.16l-0.36 0.121z" inkscape:connector-curvature="0"/>
      <path id="path512" style="fill-rule:evenodd;fill:#dcc22f" d="m17.746 21.329c-0.133 0.321-0.117 0.547 0.043 0.68l1.399-1.441-1.161 0.238 0.2-0.68c-0.161-0.05-0.321-0.05-0.481 0l-0.359 0.203-0.52 0.797v0.043l0.281-0.32 0.282-0.121c0.238-0.055 0.371-0.012 0.398 0.121 0.027 0.078 0 0.238-0.082 0.48z" inkscape:connector-curvature="0"/>
      <path id="path514" style="fill-rule:evenodd;fill:#a89423" d="m18.227 20.126-0.2 0.68 1.879-0.359-0.199-0.2c-0.371-0.214-0.68-0.359-0.918-0.441l-1.242 0.203-0.16 0.32 0.359-0.203c0.16-0.05 0.32-0.05 0.481 0z" inkscape:connector-curvature="0"/>
      <path id="path516" style="fill-rule:evenodd;fill:#f8e87c" d="m18.227 20.529c-0.266 0.371-0.426 0.679-0.481 0.918-0.105 0.347-0.094 0.656 0.043 0.921 0.106 0.239 0.266 0.36 0.481 0.36 0.265-0.027 0.453-0.067 0.558-0.121-0.082 0.187-0.16 0.386-0.242 0.601-0.133 0.426-0.145 0.707-0.039 0.84 0.16 0.188 0.359 0.32 0.601 0.399 0.293 0.109 0.52 0.121 0.68 0.043l0.16-0.161c0.106-0.214 0.16-0.429 0.16-0.64v-0.36c0-0.187 0.028-0.308 0.079-0.363l0.242 0.402c0.183 0.293 0.386 0.454 0.597 0.481 0.188 0 0.321-0.027 0.403-0.082l0.199-0.277c0.16-0.375 0.078-0.934-0.238-1.684 0.238-0.156-0.188-0.52-1.282-1.078-0.187-0.106-0.414-0.254-0.679-0.442-0.133-0.105-0.281-0.171-0.442-0.199l-0.238-0.281c-0.215 0.27-0.402 0.508-0.562 0.723z" inkscape:connector-curvature="0"/>
      <path id="path518" style="fill-rule:evenodd;fill:#c8af21" d="m17.867 21.49c-0.078 0.769 0.106 1.132 0.563 1.078 0.265-0.028 0.453-0.067 0.558-0.121-0.082 0.187-0.16 0.386-0.242 0.601-0.16 0.453-0.184 0.735-0.078 0.84 0.187 0.188 0.398 0.32 0.641 0.398 0.293 0.11 0.519 0.122 0.679 0.043l0.121-0.121c0.133-0.269 0.2-0.492 0.2-0.679v-0.321c0-0.215 0.027-0.336 0.078-0.359l0.199 0.398c0.187 0.266 0.402 0.414 0.641 0.442 0.136 0.051 0.253 0.027 0.359-0.082l0.242-0.278c0.16-0.375 0.078-0.921-0.242-1.64 0.215-0.16-0.211-0.535-1.277-1.121-0.133-0.078-0.442-0.254-0.922-0.52-0.239-0.133-0.438-0.215-0.598-0.242h-0.082c-0.504 0.695-0.785 1.254-0.84 1.684z" inkscape:connector-curvature="0"/>
    </g>
  </g>
<metadata><rdf:RDF><cc:Work><dc:format>image/svg+xml</dc:format><dc:type rdf:resource="http://purl.org/dc/dcmitype/StillImage"/><cc:license rdf:resource="http://creativecommons.org/licenses/publicdomain/"/><dc:publisher><cc:Agent rdf:about="http://openclipart.org/"><dc:title>Openclipart</dc:title></cc:Agent></dc:publisher></cc:Work><cc:License rdf:about="http://creativecommons.org/licenses/publicdomain/"><cc:permits rdf:resource="http://creativecommons.org/ns#Reproduction"/><cc:permits rdf:resource="http://creativecommons.org/ns#Distribution"/><cc:permits rdf:resource="http://creativecommons.org/ns#DerivativeWorks"/></cc:License></rdf:RDF></metadata></svg>
