<?xml version="1.0" encoding="UTF-8" standalone="no"?>
<!-- Created with Inkscape (http://www.inkscape.org/) -->
<svg xmlns:inkscape="http://www.inkscape.org/namespaces/inkscape" xmlns:rdf="http://www.w3.org/1999/02/22-rdf-syntax-ns#" xmlns="http://www.w3.org/2000/svg" xmlns:xlink="http://www.w3.org/1999/xlink" xmlns:ns1="http://sozi.baierouge.fr" xmlns:cc="http://creativecommons.org/ns#" xmlns:sodipodi="http://sodipodi.sourceforge.net/DTD/sodipodi-0.dtd" xmlns:dc="http://purl.org/dc/elements/1.1/" id="svg2" xml:space="preserve" viewBox="0 0 33.685 31.713" version="1.1" inkscape:version="0.91 r13725">
  <defs id="defs6">
    <linearGradient id="linearGradient24" y2="-16349" gradientUnits="userSpaceOnUse" x2="15.035" gradientTransform="matrix(.00011722 -.8 .8 -.0008 13081 8.5498)" y1="-16349" x1="8.21">
      <stop id="stop26" style="stop-color:#8f8f8f" offset="0"/>
      <stop id="stop28" style="stop-color:#e8e8e8" offset=".22750"/>
      <stop id="stop30" style="stop-color:#696969" offset="1"/>
    </linearGradient>
    <linearGradient id="linearGradient44" y2="-13813" gradientUnits="userSpaceOnUse" x2="-1910.7" gradientTransform="matrix(.21808 -.76968 .76968 .21808 11051 1550.1)" y1="-13813" x1="-1919.9">
      <stop id="stop46" style="stop-color:#e8e8e8" offset="0"/>
      <stop id="stop48" style="stop-color:#ededed" offset="1"/>
    </linearGradient>
    <linearGradient id="linearGradient62" y2="-13813" gradientUnits="userSpaceOnUse" x2="-1910.7" gradientTransform="matrix(.21808 -.76968 .76968 .21808 11051 1550)" y1="-13813" x1="-1919.9">
      <stop id="stop64" style="stop-color:#e8e8e8" offset="0"/>
      <stop id="stop66" style="stop-color:#878787" offset="1"/>
    </linearGradient>
    <linearGradient id="linearGradient80" y2="-17618" gradientUnits="userSpaceOnUse" x2="1518.9" gradientTransform="matrix(-.1364 -.78832 .78832 -.1364 14102 -1196.2)" y1="-17618" x1="1517.5">
      <stop id="stop82" style="stop-color:#8f8f8f" offset="0"/>
      <stop id="stop84" style="stop-color:#e8e8e8" offset=".22750"/>
      <stop id="stop86" style="stop-color:#696969" offset="1"/>
    </linearGradient>
    <linearGradient id="linearGradient100" y2="318.91" gradientUnits="userSpaceOnUse" x2="362.34" gradientTransform="matrix(.79928 .03424 -.03424 .79928 -269.28 -264.61)" y1="318.91" x1="360.59">
      <stop id="stop102" style="stop-color:#e9a9ba" offset="0"/>
      <stop id="stop104" style="stop-color:#c47f91" offset="1"/>
    </linearGradient>
    <linearGradient id="linearGradient118" y2="317.51" gradientUnits="userSpaceOnUse" x2="371.64" gradientTransform="matrix(.79928 .03424 -.03424 .79928 -269.28 -264.61)" y1="317.51" x1="369.89">
      <stop id="stop120" style="stop-color:#e9a9ba" offset="0"/>
      <stop id="stop122" style="stop-color:#c47f91" offset="1"/>
    </linearGradient>
    <linearGradient id="linearGradient136" y2="321.03" gradientUnits="userSpaceOnUse" x2="379.45" gradientTransform="matrix(.79928 .03424 -.03424 .79928 -269.28 -264.61)" y1="321.03" x1="377.7">
      <stop id="stop138" style="stop-color:#e9a9ba" offset="0"/>
      <stop id="stop140" style="stop-color:#c47f91" offset="1"/>
    </linearGradient>
    <linearGradient id="linearGradient154" y2="-13441" gradientUnits="userSpaceOnUse" x2="-2087" gradientTransform="matrix(.24544 -.76144 .76144 .24544 10764 1712.8)" y1="-13441" x1="-2106.1">
      <stop id="stop156" style="stop-color:#e9a9ba" offset="0"/>
      <stop id="stop158" style="stop-color:#c47f91" offset="1"/>
    </linearGradient>
    <linearGradient id="linearGradient172" y2="-12875" gradientUnits="userSpaceOnUse" x2="-2352" gradientTransform="matrix(.28592 -.7472 .7472 .28592 10317 1927.1)" y1="-12875" x1="-2369">
      <stop id="stop174" style="stop-color:#c78f9f" offset="0"/>
      <stop id="stop176" style="stop-color:#9b6473" offset="1"/>
    </linearGradient>
    <clipPath id="clipPath186">
      <path id="path188" d="m21.508 19.851c0.668-0.055 1.215-0.176 1.64-0.359 0.454-0.188 0.653-0.414 0.598-0.68-0.027-0.27-0.305-0.48-0.84-0.641-0.531-0.187-1.144-0.254-1.84-0.199-0.48 0-0.984 0.078-1.519 0.238 0.32 0.266 0.762 0.707 1.32 1.321l0.082 0.16 0.559 0.16z" inkscape:connector-curvature="0"/>
    </clipPath>
    <clipPath id="clipPath194">
      <path id="path196" d="m-1043.6-370.03h6.724v10.546h-6.724v-10.546z" inkscape:connector-curvature="0"/>
    </clipPath>
    <radialGradient id="radialGradient198" gradientUnits="userSpaceOnUse" cy="-365.03" cx="-1041.1" r="3.1655">
      <stop id="stop200" style="stop-color:#ffffff;stop-opacity:.37650" offset="0"/>
      <stop id="stop202" style="stop-color:#ffffff;stop-opacity:0" offset=".86670"/>
      <stop id="stop206" style="stop-color:#ffffff;stop-opacity:0" offset="1"/>
    </radialGradient>
    <mask id="mask208">
      <g id="g210">
        <g id="g212" clip-path="url(#clipPath194)">
          <path id="path214" style="fill:url(#radialGradient198)" d="m-1043.6-370.03h6.724v10.546h-6.724v-10.546z" inkscape:connector-curvature="0"/>
        </g>
      </g>
    </mask>
    <radialGradient id="radialGradient218" gradientUnits="userSpaceOnUse" cy="-365.03" cx="-1041.1" r="3.1655">
      <stop id="stop220" style="stop-color:#000000" offset="0"/>
      <stop id="stop222" style="stop-color:#000000" offset=".86670"/>
      <stop id="stop224" style="stop-color:#000000" offset="1"/>
    </radialGradient>
    <linearGradient id="linearGradient240" y2="-15478" gradientUnits="userSpaceOnUse" x2="-85.179" gradientTransform="matrix(.0796 -.796 .80344 .00528 12464 31.925)" y1="-15478" x1="-88.696">
      <stop id="stop242" style="stop-color:#e9a9ba" offset="0"/>
      <stop id="stop244" style="stop-color:#c47f91" offset="1"/>
    </linearGradient>
    <linearGradient id="linearGradient260" y2="-15450" gradientUnits="userSpaceOnUse" x2="-79.59" gradientTransform="matrix(.082 -.79576 .80376 .00448 12447 23.721)" y1="-15450" x1="-83.737">
      <stop id="stop262" style="stop-color:#c78f9f" offset="0"/>
      <stop id="stop264" style="stop-color:#9b6473" offset="1"/>
    </linearGradient>
    <clipPath id="clipPath272">
      <path id="path274" d="m25.586 9.769v-2.32c-0.024-0.399-0.145-0.758-0.359-1.078-0.344-0.536-1.493-1.426-3.438-2.68-0.906 0.078-1.519 0.414-1.84 1-0.32 0.613-0.215 1.348 0.321 2.199 0.558 0.856 1.382 1.559 2.476 2.121 0.934 0.508 1.883 0.758 2.84 0.758z" inkscape:connector-curvature="0"/>
    </clipPath>
    <clipPath id="clipPath280">
      <path id="path282" d="m17.765-23.149h8.75v8.75h-8.75v-8.75z" inkscape:connector-curvature="0"/>
    </clipPath>
    <radialGradient id="radialGradient284" gradientUnits="userSpaceOnUse" cy="-18.5" cx="22.9" r="3.7125">
      <stop id="stop286" style="stop-color:#ffffff;stop-opacity:.37650" offset="0"/>
      <stop id="stop288" style="stop-color:#ffffff;stop-opacity:0" offset=".86670"/>
      <stop id="stop292" style="stop-color:#ffffff;stop-opacity:0" offset="1"/>
    </radialGradient>
    <mask id="mask294">
      <g id="g296">
        <g id="g298" clip-path="url(#clipPath280)">
          <path id="path300" style="fill:url(#radialGradient284)" d="m17.765-23.149h8.75v8.75h-8.75v-8.75z" inkscape:connector-curvature="0"/>
        </g>
      </g>
    </mask>
    <radialGradient id="radialGradient304" gradientUnits="userSpaceOnUse" cy="-18.5" cx="22.9" r="3.7125">
      <stop id="stop306" style="stop-color:#000000" offset="0"/>
      <stop id="stop308" style="stop-color:#000000" offset=".86670"/>
      <stop id="stop310" style="stop-color:#000000" offset="1"/>
    </radialGradient>
    <linearGradient id="linearGradient324" y2="-16146" gradientUnits="userSpaceOnUse" x2="-159.03" gradientTransform="matrix(.01776 -.79984 .79984 .01776 12939 165.15)" y1="-16146" x1="-162.4">
      <stop id="stop326" style="stop-color:#e9a9ba" offset="0"/>
      <stop id="stop328" style="stop-color:#c47f91" offset="1"/>
    </linearGradient>
    <linearGradient id="linearGradient344" y2="-11172" gradientUnits="userSpaceOnUse" x2="-2959.6" gradientTransform="matrix(.39904 -.69336 .69336 .39904 8952 2412.3)" y1="-11172" x1="-2963.6">
      <stop id="stop346" style="stop-color:#c78f9f" offset="0"/>
      <stop id="stop348" style="stop-color:#9b6473" offset="1"/>
    </linearGradient>
    <linearGradient id="linearGradient364" y2="-1097.3" gradientUnits="userSpaceOnUse" x2="15865" gradientTransform="matrix(-.0992 .79384 -.81368 .05984 704.03 -12520)" y1="-1097.3" x1="15863">
      <stop id="stop366" style="stop-color:#9c6877" offset="0"/>
      <stop id="stop368" style="stop-color:#905d6a" offset="1"/>
    </linearGradient>
    <linearGradient id="linearGradient382" y2="-1163.3" gradientUnits="userSpaceOnUse" x2="15909" gradientTransform="matrix(-.10496 .79312 -.8144 .05616 745.18 -12544)" y1="-1163.3" x1="15908">
      <stop id="stop384" style="stop-color:#754e5a" offset="0"/>
      <stop id="stop386" style="stop-color:#4e3238" offset="1"/>
    </linearGradient>
    <linearGradient id="linearGradient402" y2="-1175.7" gradientUnits="userSpaceOnUse" x2="15847" gradientTransform="matrix(-.10576 .79296 -.8156 .06368 741.9 -12482)" y1="-1175.7" x1="15845">
      <stop id="stop404" style="stop-color:#9c6877" offset="0"/>
      <stop id="stop406" style="stop-color:#905d6a" offset="1"/>
    </linearGradient>
    <linearGradient id="linearGradient420" y2="-1100.7" gradientUnits="userSpaceOnUse" x2="15863" gradientTransform="matrix(-.0992 .79384 -.81376 .06024 703.57 -12517)" y1="-1100.7" x1="15862">
      <stop id="stop422" style="stop-color:#754e5a" offset="0"/>
      <stop id="stop424" style="stop-color:#4e3238" offset="1"/>
    </linearGradient>
    <linearGradient id="linearGradient440" y2="-16803" gradientUnits="userSpaceOnUse" x2="514.89" gradientTransform="matrix(-.04736 -.79856 .79856 -.04736 13462 -377.36)" y1="-16803" x1="511.94">
      <stop id="stop442" style="stop-color:#5f4e29" offset="0"/>
      <stop id="stop444" style="stop-color:#271d09" offset=".85880"/>
      <stop id="stop446" style="stop-color:#271d09" offset="1"/>
    </linearGradient>
    <linearGradient id="linearGradient462" y2="-16829" gradientUnits="userSpaceOnUse" x2="547.61" gradientTransform="matrix(-.0508 -.7984 .7984 -.0508 13489 -407.15)" y1="-16829" x1="544.85">
      <stop id="stop464" style="stop-color:#5f4e29" offset="0"/>
      <stop id="stop466" style="stop-color:#271d09" offset=".85880"/>
      <stop id="stop468" style="stop-color:#271d09" offset="1"/>
    </linearGradient>
    <clipPath id="clipPath478">
      <path id="path480" d="m9.309 24.089c1.679 0.774 3.546 1.203 5.597 1.282-2.211-0.426-4.078-0.852-5.597-1.282z" inkscape:connector-curvature="0"/>
    </clipPath>
    <clipPath id="clipPath486">
      <path id="path488" d="m5.2653-19.1h7.5v3.6227h-7.5v-3.6227z" inkscape:connector-curvature="0"/>
    </clipPath>
    <radialGradient id="radialGradient490" gradientUnits="userSpaceOnUse" cy="-4.8994" cx="13.45" r="14.238">
      <stop id="stop492" style="stop-color:#ffffff;stop-opacity:.73730" offset="0"/>
      <stop id="stop494" style="stop-color:#ffffff;stop-opacity:0" offset=".86670"/>
      <stop id="stop496" style="stop-color:#ffffff;stop-opacity:0" offset="1"/>
    </radialGradient>
    <mask id="mask498">
      <g id="g500">
        <g id="g502" clip-path="url(#clipPath486)">
          <path id="path504" style="fill:url(#radialGradient490)" d="m5.2653-19.1h7.5v3.6227h-7.5v-3.6227z" inkscape:connector-curvature="0"/>
        </g>
      </g>
    </mask>
    <radialGradient id="radialGradient508" gradientUnits="userSpaceOnUse" cy="-4.8994" cx="13.45" r="14.238">
      <stop id="stop510" style="stop-color:#000000" offset="0"/>
      <stop id="stop512" style="stop-color:#000000" offset="1"/>
    </radialGradient>
    <clipPath id="clipPath520">
      <path id="path522" d="m6.586 16.812c2.269-0.027 5.668-0.055 10.203-0.082 3.891 0 7.277 0.148 10.16 0.441-0.137-2.078-1.308-3.851-3.519-5.32-2.188-1.441-4.817-2.16-7.883-2.16-3.145 0-5.828 0.762-8.039 2.281-2.211 1.52-3.32 3.371-3.32 5.559v0.281l0.558-0.082c0.481-0.613 1.094-0.918 1.84-0.918z" inkscape:connector-curvature="0"/>
    </clipPath>
    <clipPath id="clipPath528">
      <path id="path530" d="m-0.98468-6.4205h28.75v16.302h-28.75v-16.302z" inkscape:connector-curvature="0"/>
    </clipPath>
    <radialGradient id="radialGradient532" gradientUnits="userSpaceOnUse" cy="-4.8994" cx="13.475" r="14.221">
      <stop id="stop534" style="stop-color:#ffffff;stop-opacity:.73730" offset="0"/>
      <stop id="stop536" style="stop-color:#ffffff;stop-opacity:0" offset=".86670"/>
      <stop id="stop538" style="stop-color:#ffffff;stop-opacity:0" offset="1"/>
    </radialGradient>
    <mask id="mask540">
      <g id="g542">
        <g id="g544" clip-path="url(#clipPath528)">
          <path id="path546" style="fill:url(#radialGradient532)" d="m-0.98468-6.4205h28.75v16.302h-28.75v-16.302z" inkscape:connector-curvature="0"/>
        </g>
      </g>
    </mask>
    <radialGradient id="radialGradient550" gradientUnits="userSpaceOnUse" cy="-4.8994" cx="13.475" r="14.221">
      <stop id="stop552" style="stop-color:#000000" offset="0"/>
      <stop id="stop554" style="stop-color:#000000" offset="1"/>
    </radialGradient>
    <clipPath id="clipPath598">
      <path id="path600" d="m16.387 17.492c0.828-0.028 1.519-0.149 2.082-0.36 0.586-0.215 0.879-0.468 0.879-0.761s-0.305-0.559-0.918-0.801c-0.618-0.211-1.364-0.32-2.242-0.32-0.614 0-1.266 0.082-1.961 0.242 0.375 0.32 0.839 0.84 1.402 1.558l0.117 0.242 0.641 0.2z" inkscape:connector-curvature="0"/>
    </clipPath>
    <clipPath id="clipPath606">
      <path id="path608" d="m11.515-13.466h7.5v14.233h-7.5v-14.233z" inkscape:connector-curvature="0"/>
    </clipPath>
    <radialGradient id="radialGradient610" gradientUnits="userSpaceOnUse" cy="-6.3496" cx="13.75" r="3.95">
      <stop id="stop612" style="stop-color:#ffffff;stop-opacity:.37650" offset="0"/>
      <stop id="stop614" style="stop-color:#ffffff;stop-opacity:0" offset=".86670"/>
      <stop id="stop618" style="stop-color:#ffffff;stop-opacity:0" offset="1"/>
    </radialGradient>
    <mask id="mask620">
      <g id="g622">
        <g id="g624" clip-path="url(#clipPath606)">
          <path id="path626" style="fill:url(#radialGradient610)" d="m11.515-13.466h7.5v14.233h-7.5v-14.233z" inkscape:connector-curvature="0"/>
        </g>
      </g>
    </mask>
    <radialGradient id="radialGradient630" gradientUnits="userSpaceOnUse" cy="-6.3496" cx="13.75" r="3.95">
      <stop id="stop632" style="stop-color:#000000" offset="0"/>
      <stop id="stop634" style="stop-color:#000000" offset=".86670"/>
      <stop id="stop636" style="stop-color:#000000" offset="1"/>
    </radialGradient>
    <linearGradient id="linearGradient652" y2="-15093" gradientUnits="userSpaceOnUse" x2="-1070.5" gradientTransform="matrix(.11376 -.79184 .79184 .11376 12090 885.21)" y1="-15093" x1="-1074.9">
      <stop id="stop654" style="stop-color:#e9a9ba" offset="0"/>
      <stop id="stop656" style="stop-color:#c47f91" offset="1"/>
    </linearGradient>
    <linearGradient id="linearGradient672" y2="-15112" gradientUnits="userSpaceOnUse" x2="-1054.3" gradientTransform="matrix(.11208 -.79208 .79208 .11208 12106 873.13)" y1="-15112" x1="-1059.5">
      <stop id="stop674" style="stop-color:#c78f9f" offset="0"/>
      <stop id="stop676" style="stop-color:#9b6473" offset="1"/>
    </linearGradient>
  </defs>
  <g id="g10" transform="matrix(1.25 0 0 -1.25 0 31.713)">
    <g id="g12">
      <g id="g14">
        <g id="g16">
          <g id="g22">
            <path id="path32" style="fill-rule:evenodd;fill:url(#linearGradient24)" d="m3.348 10.371c0.054 0.48-0.067 0.785-0.36 0.921l-0.359 0.04c-0.188 0-0.348-0.028-0.481-0.082-0.425-0.133-0.668-0.426-0.718-0.879-0.028-0.399 0.078-0.68 0.316-0.84 0.348-0.188 0.695-0.188 1.043 0 0.32 0.187 0.508 0.469 0.559 0.84zm-2.762 3.718c0.082 0.641 0.402 0.973 0.961 1 1.094 0.028 1.867-0.504 2.32-1.597 0.403-0.989 0.43-1.641 0.082-1.961 0.348-0.426 0.321-1.067-0.082-1.922-0.453-0.934-1.226-1.227-2.32-0.879-0.559 0.187-0.879 0.613-0.961 1.281-0.106 0.692 0.094 1.227 0.602 1.598l0.359 0.281-0.359 0.36c-0.508 0.562-0.708 1.175-0.602 1.839zm2.762-1.199c-0.051 0.399-0.239 0.735-0.559 1-0.348 0.32-0.695 0.426-1.043 0.32-0.238-0.105-0.344-0.375-0.316-0.8 0.05-0.453 0.293-0.813 0.718-1.078l0.481-0.243 0.359-0.039c0.293 0.028 0.414 0.309 0.36 0.84z" inkscape:connector-curvature="0"/>
          </g>
        </g>
      </g>
      <g id="g34">
        <g id="g36">
          <g id="g42">
            <path id="path50" style="fill-rule:evenodd;fill:url(#linearGradient44)" d="m1.789 11.089c-0.453-0.105-0.695-0.386-0.723-0.839-0.023-0.426 0.082-0.719 0.321-0.879 0.32-0.215 0.656-0.215 1 0 0.32 0.187 0.508 0.464 0.562 0.839 0.078 0.481-0.027 0.774-0.32 0.879l-0.359 0.082-0.481-0.082zm-1.601 2.84c0.109 0.641 0.441 0.973 1 1 1.093 0.028 1.867-0.504 2.32-1.597 0.398-0.989 0.414-1.641 0.039-1.961 0.375-0.399 0.359-1.039-0.039-1.922-0.453-0.957-1.227-1.266-2.32-0.918-0.559 0.215-0.895 0.652-1 1.32-0.106 0.691 0.093 1.227 0.601 1.598l0.399 0.281-0.399 0.359c-0.508 0.559-0.707 1.172-0.601 1.84zm1.199 0.121c-0.239-0.105-0.344-0.375-0.321-0.8 0.028-0.481 0.27-0.84 0.723-1.079l0.481-0.242 0.359-0.039c0.293 0.027 0.398 0.305 0.32 0.84-0.054 0.398-0.242 0.734-0.562 1-0.344 0.32-0.68 0.426-1 0.32z" inkscape:connector-curvature="0"/>
          </g>
        </g>
      </g>
      <g id="g52">
        <g id="g54">
          <g id="g60">
            <path id="path68" style="fill-rule:evenodd;fill:url(#linearGradient62)" d="m1.629 11.011c-0.453-0.105-0.695-0.386-0.723-0.84-0.023-0.425 0.082-0.722 0.321-0.879 0.32-0.214 0.656-0.214 1 0 0.32 0.184 0.507 0.465 0.562 0.84 0.106 0.504 0 0.797-0.32 0.879l-0.36 0.078-0.48-0.078zm-1.602 2.84c0.106 0.641 0.442 0.973 1 1 1.094 0.027 1.868-0.508 2.321-1.601 0.398-0.985 0.414-1.641 0.039-1.958 0.375-0.402 0.359-1.042-0.039-1.921-0.453-0.961-1.227-1.266-2.321-0.922-0.558 0.215-0.894 0.656-1 1.32-0.105 0.695 0.094 1.227 0.602 1.602l0.398 0.281-0.398 0.359c-0.508 0.559-0.707 1.172-0.602 1.84zm2.762-1.199c-0.055 0.398-0.242 0.73-0.562 1-0.344 0.32-0.68 0.426-1 0.32-0.239-0.109-0.344-0.375-0.321-0.801 0.028-0.48 0.27-0.839 0.723-1.082l0.48-0.238 0.36-0.039c0.293 0.023 0.398 0.305 0.32 0.84z" inkscape:connector-curvature="0"/>
          </g>
        </g>
      </g>
      <g id="g70">
        <g id="g72">
          <g id="g78">
            <path id="path88" style="fill-rule:evenodd;fill:url(#linearGradient80)" d="m8.148 10.05-4.32 0.641c-0.242-0.027-0.359 0.105-0.359 0.398 0 0.188 0.066 0.321 0.199 0.403 0.055 0.05 0.105 0.078 0.16 0.078l4.32-0.641v-0.879z" inkscape:connector-curvature="0"/>
          </g>
        </g>
      </g>
      <g id="g90">
        <g id="g92">
          <g id="g98">
            <path id="path106" style="fill-rule:evenodd;fill:url(#linearGradient100)" d="m7.188 4.492 3.761-0.282c-0.32-1.199-0.547-1.96-0.679-2.281-0.321-0.824-0.657-1.199-1-1.117-0.668 0.16-1.364 1.387-2.082 3.68z" inkscape:connector-curvature="0"/>
          </g>
        </g>
      </g>
      <g id="g108">
        <g id="g110">
          <g id="g116">
            <path id="path124" style="fill-rule:evenodd;fill:url(#linearGradient118)" d="m14.668 3.691 3.719-0.281c-0.266-1.094-0.481-1.852-0.641-2.278-0.316-0.828-0.652-1.203-1-1.121-0.664 0.16-1.359 1.387-2.078 3.68z" inkscape:connector-curvature="0"/>
          </g>
        </g>
      </g>
      <g id="g126">
        <g id="g128">
          <g id="g134">
            <path id="path142" style="fill-rule:evenodd;fill:url(#linearGradient136)" d="m20.789 6.769 3.758-0.277c-0.32-1.2-0.547-1.961-0.68-2.282-0.32-0.828-0.652-1.199-1-1.121-0.664 0.161-1.359 1.387-2.078 3.68z" inkscape:connector-curvature="0"/>
          </g>
        </g>
      </g>
      <g id="g144">
        <g id="g146">
          <g id="g152">
            <path id="path160" style="fill-rule:evenodd;fill:url(#linearGradient154)" d="m24.746 18.972c0.297-0.269 0.508-0.64 0.641-1.121 0.133-0.426 0.199-3.508 0.199-9.242v-1.16c-0.024-0.399-0.145-0.758-0.359-1.078-0.211-0.348-0.934-0.946-2.161-1.801-1.093-0.774-1.878-1.278-2.359-1.52-1.305-0.746-2.32-1.121-3.039-1.121-1.922 0.242-3.398 0.363-4.441 0.363-0.614 0.024-1.774 0.157-3.481 0.399-1.703 0.238-2.719 0.387-3.039 0.441-0.531 0.106-0.906 0.344-1.121 0.719-0.266 0.531-0.41 1.613-0.438 3.238-0.132 2.586-0.199 4.481-0.199 5.68 0.024 2.137 0.332 3.402 0.918 3.801 0.774 0.535 2 1.254 3.68 2.16 2.027 1.121 3.336 1.695 3.922 1.719 0.719 0.027 2.265-0.117 4.64-0.438 2.477-0.347 4.012-0.519 4.598-0.519 0.906 0 1.586-0.176 2.039-0.52z" inkscape:connector-curvature="0"/>
          </g>
        </g>
      </g>
      <g id="g162">
        <g id="g164">
          <g id="g170">
            <path id="path178" style="fill-rule:evenodd;fill:url(#linearGradient172)" d="m25.547 15.769c0.027-0.852 0.039-3.238 0.039-7.16v-1.16c-0.024-0.399-0.145-0.758-0.359-1.078-0.211-0.348-0.934-0.946-2.161-1.801-1.093-0.774-1.878-1.278-2.359-1.52-0.238-0.133-0.746-0.347-1.519-0.64-0.774-0.293-1.282-0.453-1.52-0.481 0.266 0.535 0.387 1.11 0.359 1.723l-0.078 11.199 0.078 0.121c0.133 0.133 0.868 0.531 2.2 1.199 1.441 0.692 2.375 1.188 2.8 1.481 1.121 0.719 1.719 1.117 1.801 1.199 0.293-0.293 0.481-0.629 0.559-1 0.054-0.16 0.109-0.851 0.16-2.082z" inkscape:connector-curvature="0"/>
          </g>
        </g>
      </g>
      <path id="path180" style="fill-rule:evenodd;fill:#ecb9c9" d="m23.629 17.89c-0.402-0.238-1.441-0.773-3.121-1.598-1.492-0.722-2.32-1.16-2.481-1.32-0.691 0.051-3.011 0.293-6.961 0.719-2.984 0.32-4.851 0.453-5.597 0.398 0.133 0.215 0.265 0.375 0.398 0.481 0.774 0.535 2 1.254 3.68 2.16 2.027 1.121 3.336 1.695 3.922 1.719 1.812 0.082 4.894-0.239 9.238-0.957 1.148-0.16 1.855-0.375 2.121-0.641-0.348-0.348-0.746-0.668-1.199-0.961z" inkscape:connector-curvature="0"/>
      <g id="g182">
        <g id="g184" clip-path="url(#clipPath186)">
          <g id="g190" transform="matrix(.79928 -.03472 -.04104 -.30328 837.99 -127.87)">
            <g id="g216" mask="url(#mask208)">
              <path id="path226" style="fill-rule:evenodd;fill:url(#radialGradient218)" d="m21.508 19.851c0.668-0.055 1.215-0.176 1.64-0.359 0.454-0.188 0.653-0.414 0.598-0.68-0.027-0.27-0.305-0.48-0.84-0.641-0.531-0.187-1.144-0.254-1.84-0.199-0.48 0-0.984 0.078-1.519 0.238 0.32 0.266 0.762 0.707 1.32 1.321l0.082 0.16 0.559 0.16z" inkscape:connector-curvature="0"/>
            </g>
          </g>
        </g>
      </g>
      <path id="path228" style="fill-rule:evenodd;fill:#f4d8e1" d="m19.789 18.449c-0.027 0.375 0.066 0.933 0.277 1.683 0.297 0.907 0.629 1.344 1 1.317 0.563-0.024 0.989-0.614 1.282-1.758 0.105-0.266-0.028-0.508-0.399-0.719-0.695-0.375-1.109-0.562-1.242-0.562l-0.918 0.039z" inkscape:connector-curvature="0"/>
      <g id="g230">
        <g id="g232">
          <g id="g238">
            <path id="path246" style="fill-rule:evenodd;fill:url(#linearGradient240)" d="m19.789 18.449c0.399 1.976 0.852 2.949 1.359 2.922 0.559-0.028 1-0.625 1.321-1.801 0.105-0.266-0.028-0.504-0.403-0.719-0.691-0.375-1.105-0.559-1.238-0.559l-1.039 0.157z" inkscape:connector-curvature="0"/>
          </g>
        </g>
      </g>
      <path id="path248" style="fill-rule:evenodd;fill:#f4d8e1" d="m21.027 18.371h-0.16c-0.055 0.187-0.039 0.613 0.039 1.281 0.055 0.664 0.137 1.094 0.242 1.277 0.106 0.215 0.254 0.309 0.438 0.281 0.269-0.238 0.535-0.761 0.801-1.558 0.054-0.27-0.094-0.496-0.438-0.68l-0.922-0.601z" inkscape:connector-curvature="0"/>
      <g id="g250">
        <g id="g252">
          <g id="g258">
            <path id="path266" style="fill-rule:evenodd;fill:url(#linearGradient260)" d="m22.066 18.851c-0.691-0.375-1.105-0.559-1.238-0.559 0.106 1.383 0.238 2.227 0.399 2.52 0.16 0.238 0.308 0.348 0.441 0.32 0.266-0.242 0.535-0.761 0.801-1.562 0.105-0.266-0.028-0.504-0.403-0.719z" inkscape:connector-curvature="0"/>
          </g>
        </g>
      </g>
      <g id="g268">
        <g id="g270" clip-path="url(#clipPath272)">
          <g id="g276" transform="matrix(.8 0 0 -.8 4.7877 -8.1486)">
            <g id="g302" mask="url(#mask294)">
              <path id="path312" style="fill-rule:evenodd;fill:url(#radialGradient304)" d="m25.586 9.769v-2.32c-0.024-0.399-0.145-0.758-0.359-1.078-0.344-0.536-1.493-1.426-3.438-2.68-0.906 0.078-1.519 0.414-1.84 1-0.32 0.613-0.215 1.348 0.321 2.199 0.558 0.856 1.382 1.559 2.476 2.121 0.934 0.508 1.883 0.758 2.84 0.758z" inkscape:connector-curvature="0"/>
            </g>
          </g>
        </g>
      </g>
      <g id="g314">
        <g id="g316">
          <g id="g322">
            <path id="path330" style="fill-rule:evenodd;fill:url(#linearGradient324)" d="m25.066 10.449c0.563-0.078 0.868-0.25 0.922-0.52 0.188-0.691-0.226-1.437-1.242-2.238-0.504-0.559-0.918-1-1.238-1.32-0.559-0.614-1.012-0.934-1.36-0.961-0.718-0.051-1.187 0.242-1.402 0.882-0.184 0.504-0.184 1.024 0 1.559 0.188 0.531 1.16 1.32 2.922 2.359 0.375 0.239 0.84 0.321 1.398 0.239z" inkscape:connector-curvature="0"/>
          </g>
        </g>
      </g>
      <path id="path332" style="fill-rule:evenodd;fill:#f4d8e1" d="m25.469 10.332c0.265-0.082 0.437-0.266 0.519-0.559 0.055-0.32-0.054-0.801-0.32-1.441-0.215-0.508-0.305-0.747-0.281-0.719-1.547-1.496-2.614-2.203-3.199-2.121-0.508 0.054-0.825 0.32-0.961 0.8-0.133 0.454-0.079 0.946 0.16 1.481 0.133 0.344 0.613 0.785 1.441 1.32 0.426 0.293 0.984 0.653 1.68 1.078 0.347 0.211 0.668 0.266 0.961 0.161z" inkscape:connector-curvature="0"/>
      <g id="g334">
        <g id="g336">
          <g id="g342">
            <path id="path350" style="fill-rule:evenodd;fill:url(#linearGradient344)" d="m25.547 10.292c0.32-0.054 0.508-0.214 0.562-0.48 0.211-1.066 0.024-1.828-0.562-2.281-1.652-1.465-2.785-2.172-3.399-2.121-0.453 0.054-0.707 0.347-0.761 0.882-0.078 0.426-0.024 0.891 0.16 1.399 0.16 0.398 1.133 1.187 2.922 2.359 0.371 0.242 0.734 0.321 1.078 0.242z" inkscape:connector-curvature="0"/>
          </g>
        </g>
      </g>
      <path id="path352" style="fill-rule:evenodd;fill:#cca0ae" d="m23.43 6.972c0-0.535-0.227-0.84-0.684-0.922-0.398-0.078-0.625 0.133-0.68 0.641 0 0.215 0.067 0.398 0.204 0.559 0.132 0.187 0.292 0.292 0.476 0.32 0.188 0.027 0.348-0.012 0.481-0.121 0.136-0.133 0.203-0.289 0.203-0.477z" inkscape:connector-curvature="0"/>
      <g id="g354">
        <g id="g356">
          <g id="g362">
            <path id="path370" style="fill-rule:evenodd;fill:url(#linearGradient364)" d="m23.43 7.171c0.023-0.214-0.028-0.414-0.16-0.601-0.137-0.16-0.297-0.266-0.481-0.32-0.187-0.051-0.348-0.012-0.48 0.121-0.133 0.132-0.2 0.304-0.2 0.519s0.067 0.402 0.2 0.559c0.105 0.187 0.253 0.297 0.437 0.32 0.188 0.027 0.348-0.012 0.481-0.117 0.136-0.11 0.203-0.27 0.203-0.481z" inkscape:connector-curvature="0"/>
          </g>
        </g>
      </g>
      <g id="g372">
        <g id="g374">
          <g id="g380">
            <path id="path388" style="fill-rule:evenodd;fill:url(#linearGradient382)" d="m23.227 7.25c0-0.454-0.184-0.708-0.559-0.758-0.133-0.055-0.266-0.028-0.398 0.078-0.11 0.105-0.161 0.254-0.161 0.441 0 0.426 0.184 0.692 0.559 0.801 0.133 0.027 0.266-0.016 0.398-0.121 0.11-0.106 0.161-0.254 0.161-0.441z" inkscape:connector-curvature="0"/>
          </g>
        </g>
      </g>
      <path id="path390" style="fill-rule:evenodd;fill:#cca0ae" d="m25.906 8.652c0.055-0.453-0.117-0.735-0.519-0.84-0.133-0.055-0.266-0.016-0.399 0.117-0.105 0.137-0.16 0.293-0.16 0.481 0 0.453 0.172 0.734 0.52 0.84 0.16 0.027 0.293-0.012 0.398-0.118 0.109-0.109 0.16-0.269 0.16-0.48z" inkscape:connector-curvature="0"/>
      <g id="g392">
        <g id="g394">
          <g id="g400">
            <path id="path408" style="fill-rule:evenodd;fill:url(#linearGradient402)" d="m25.949 8.851c0-0.453-0.176-0.734-0.519-0.84-0.16-0.054-0.297-0.015-0.403 0.121-0.105 0.106-0.16 0.266-0.16 0.477-0.055 0.457 0.121 0.734 0.52 0.84 0.16 0.027 0.293-0.012 0.402-0.117 0.106-0.106 0.16-0.266 0.16-0.481z" inkscape:connector-curvature="0"/>
          </g>
        </g>
      </g>
      <g id="g410">
        <g id="g412">
          <g id="g418">
            <path id="path426" style="fill-rule:evenodd;fill:url(#linearGradient420)" d="m25.746 8.933c0-0.375-0.144-0.617-0.437-0.723-0.293-0.05-0.442 0.122-0.442 0.52-0.055 0.375 0.094 0.613 0.442 0.723 0.293 0.05 0.437-0.121 0.437-0.52z" inkscape:connector-curvature="0"/>
          </g>
        </g>
      </g>
      <path id="path428" style="fill-rule:evenodd;fill:#805361" d="m20.387 9.05c0-0.398-0.078-0.734-0.239-1-0.187-0.265-0.402-0.398-0.64-0.398s-0.442 0.133-0.602 0.398c-0.183 0.266-0.277 0.602-0.277 1 0 0.375 0.094 0.696 0.277 0.961 0.16 0.266 0.364 0.399 0.602 0.399s0.453-0.133 0.64-0.399c0.161-0.265 0.239-0.586 0.239-0.961z" inkscape:connector-curvature="0"/>
      <g id="g430">
        <g id="g432">
          <g id="g438">
            <path id="path448" style="fill-rule:evenodd;fill:url(#linearGradient440)" d="m20.027 9.011c0-0.293-0.066-0.535-0.199-0.719-0.133-0.187-0.308-0.281-0.519-0.281-0.188 0-0.36 0.094-0.52 0.281-0.137 0.184-0.203 0.426-0.203 0.719s0.066 0.547 0.203 0.758c0.133 0.188 0.305 0.281 0.52 0.281 0.211 0 0.386-0.093 0.519-0.281 0.133-0.211 0.199-0.465 0.199-0.758z" inkscape:connector-curvature="0"/>
          </g>
        </g>
      </g>
      <path id="path450" style="fill-rule:evenodd;fill:#805361" d="m25.547 12.132c0-0.347-0.051-0.656-0.16-0.922-0.133-0.265-0.278-0.398-0.438-0.398s-0.297 0.133-0.402 0.398c-0.106 0.243-0.16 0.547-0.16 0.922 0 0.852 0.187 1.278 0.562 1.278 0.16 0 0.305-0.118 0.438-0.36 0.109-0.265 0.16-0.574 0.16-0.918z" inkscape:connector-curvature="0"/>
      <g id="g452">
        <g id="g454">
          <g id="g460">
            <path id="path470" style="fill-rule:evenodd;fill:url(#linearGradient462)" d="m25.309 12.132c0-0.64-0.161-0.961-0.481-0.961s-0.48 0.321-0.48 0.961c0 0.641 0.16 0.961 0.48 0.961 0.32-0.004 0.481-0.324 0.481-0.961z" inkscape:connector-curvature="0"/>
          </g>
        </g>
      </g>
      <path id="path472" style="fill-rule:evenodd;fill:#f4d8e1" d="m21.547 16.609c-2.16-1.199-3.266-1.934-3.32-2.199-0.051-0.293-0.051-3.614 0-9.961-0.024-1.36-0.211-2.199-0.559-2.52l0.16 0.481c0.078 0.215 0.106 1.816 0.078 4.8-0.023 2.747-0.066 4.641-0.117 5.68-0.055 0.879-0.109 1.387-0.16 1.52-0.055 0.16-0.199 0.265-0.441 0.32-0.321 0.082-2.586 0.336-6.801 0.762l-4.879 0.8 6.078-0.64c1.094-0.137 2.387-0.254 3.883-0.36 1.465-0.109 2.304-0.136 2.519-0.082 0.266 0.028 1.305 0.52 3.121 1.481 1.172 0.613 2.411 1.332 3.719 2.16-0.055-0.32-1.148-1.066-3.281-2.242z" inkscape:connector-curvature="0"/>
      <g id="g474">
        <g id="g476" clip-path="url(#clipPath478)">
          <g id="g482" transform="matrix(.8 0 0 -.55208 4.7877 14.826)">
            <g id="g506" mask="url(#mask498)">
              <path id="path514" style="fill-rule:evenodd;fill:url(#radialGradient508)" d="m9.309 24.089c1.679 0.774 3.546 1.203 5.597 1.282-2.211-0.426-4.078-0.852-5.597-1.282z" inkscape:connector-curvature="0"/>
            </g>
          </g>
        </g>
      </g>
      <g id="g516">
        <g id="g518" clip-path="url(#clipPath520)">
          <g id="g524" transform="matrix(.8 0 0 -.55208 4.7877 14.826)">
            <g id="g548" mask="url(#mask540)">
              <path id="path556" style="fill-rule:evenodd;fill:url(#radialGradient550)" d="m6.586 16.812c2.269-0.027 5.668-0.055 10.203-0.082 3.891 0 7.277 0.148 10.16 0.441-0.137-2.078-1.308-3.851-3.519-5.32-2.188-1.441-4.817-2.16-7.883-2.16-3.145 0-5.828 0.762-8.039 2.281-2.211 1.52-3.32 3.371-3.32 5.559v0.281l0.558-0.082c0.481-0.613 1.094-0.918 1.84-0.918z" inkscape:connector-curvature="0"/>
            </g>
          </g>
        </g>
      </g>
      <path id="path558" style="fill-rule:evenodd;fill:#906765" d="m7.988 3.449c-0.215 0.453-0.386 0.773-0.519 0.961-0.106 0.187-0.227 0.308-0.36 0.359-0.187 0.109-0.336 0.203-0.441 0.281-0.453 0.399-0.762 0.707-0.922 0.922-0.316 0.399-0.437 0.813-0.359 1.238l2.761-0.679c0.293-0.481 0.918-0.785 1.879-0.922 0.508-0.078 1.2-0.172 2.082-0.277 0.637-0.215 1.547-0.52 2.719-0.922 0.641-0.16 1.426-0.239 2.36-0.239 2.16 0.106 3.398-0.254 3.718-1.082-0.293-0.183-0.543-0.453-0.758-0.797-1.574 0.133-2.773 0.211-3.601 0.239-0.852 0.16-1.492 0.281-1.918 0.359-0.746 0.133-1.359 0-1.84-0.398l-0.16-0.121c-0.613 0.078-1.176-0.012-1.68-0.282-0.32-0.16-0.613-0.371-0.883-0.64-0.425 0.136-0.933 0.496-1.519 1.082-0.211 0.215-0.399 0.519-0.559 0.918z" inkscape:connector-curvature="0"/>
      <path id="path560" style="fill-rule:evenodd;fill:#655732" d="m23.707 19.089-6.879 1.922 0.481 1.16c0.503 0.719 1.211 1 2.121 0.84 0.851-0.16 1.758-0.851 2.718-2.082 0.934-1.199 1.454-1.812 1.559-1.84z" inkscape:connector-curvature="0"/>
      <path id="path562" style="fill-rule:evenodd;fill:#837041" d="m10.387 18.812c-0.266 0.371-0.067 0.984 0.601 1.84 0.692 0.933 1.559 1.586 2.598 1.957 1.121 0.402 2.027 0.656 2.723 0.762 0.691 0.078 1.386 0.027 2.078-0.161 0.933-0.265 2.187-1.8 3.761-4.601-0.265-0.266-0.613-0.543-1.039-0.84-0.855-0.559-1.695-0.879-2.523-0.957-4.293-0.43-7.024 0.238-8.199 2z" inkscape:connector-curvature="0"/>
      <path id="path564" style="fill-rule:evenodd;fill:#76653b" d="m13.668 19.652c-0.266 0.293-0.453 0.465-0.559 0.519-0.242 0.106-0.589 0.094-1.043-0.039-0.48-0.132-0.839-0.175-1.078-0.121l-0.121 0.52c0.695 0.906 1.52 1.558 2.481 1.961 0.238 0 0.48-0.043 0.718-0.121l0.321-0.121c0.425-0.211 0.773-0.481 1.043-0.801 0.105-0.133 0.199-0.278 0.277-0.438 0.082-0.105 0.227-0.187 0.441-0.242 0.293-0.078 0.758-0.078 1.399 0l-0.16-0.359c0.535-0.051 0.933-0.067 1.199-0.039 0.375 0.078 0.777 0.332 1.203 0.761l0.238 0.118 0.403-0.36c-1.629-1.144-3.188-1.707-4.684-1.68-0.664-0.078-1.133-0.093-1.398-0.039-0.188 0.055-0.414 0.211-0.68 0.481z" inkscape:connector-curvature="0"/>
      <path id="path566" style="fill-rule:evenodd;fill:#76653b" d="m13.066 17.089 0.563-0.078c0.957-0.082 2.051-0.094 3.277-0.039 0.989 0 1.735 0.051 2.242 0.16 0.879 0.16 1.52 0.493 1.918 1 0.297 0.399 0.414 0.946 0.364 1.637l0.398-0.598c0-0.375-0.082-0.722-0.242-1.039-1.066-0.8-2.066-1.242-3-1.32-2.133-0.27-3.973-0.176-5.52 0.277z" inkscape:connector-curvature="0"/>
      <path id="path568" style="fill-rule:evenodd;fill:#594c2c" d="m14.348 19.171c0.265-0.054 0.734-0.039 1.398 0.039 1.496-0.027 3.055 0.536 4.684 1.68l0.597-0.48 0.403-0.641c0.05-0.691-0.067-1.238-0.364-1.637-0.398-0.507-1.039-0.84-1.918-1-0.507-0.109-1.253-0.16-2.242-0.16-1.226-0.055-2.32-0.043-3.277 0.039l-0.563 0.078c-1.277 0.321-2.171 0.895-2.679 1.723-0.239 0.32-0.078 0.891 0.48 1.719l0.121-0.52c0.239-0.054 0.598-0.015 1.078 0.121 0.454 0.133 0.801 0.145 1.043 0.039 0.106-0.054 0.293-0.226 0.559-0.519 0.266-0.27 0.492-0.426 0.68-0.481z" inkscape:connector-curvature="0"/>
      <path id="path570" style="fill-rule:evenodd;fill:#a28950" d="m14.387 22.25-0.84 0.32 0.039 0.039c1.121 0.402 2.027 0.656 2.723 0.762 0.691 0.078 1.386 0.027 2.078-0.161 0.613-0.187 1.496-1.121 2.64-2.8l-1 0.84-0.839 0.601c-0.239 0.188-0.602 0.305-1.079 0.359l-0.8 0.122c-1.227 0.16-1.934 0.05-2.121-0.321-0.239 0.028-0.508 0.106-0.801 0.239z" inkscape:connector-curvature="0"/>
      <path id="path572" style="fill-rule:evenodd;fill:#837041" d="m19.867 19.851c4.719-0.719 6.961-1.574 6.719-2.559-0.211-0.828-1.359-1.667-3.438-2.523-2.32-0.934-4.574-1.277-6.761-1.039-1.973 0.242-4.211 0.828-6.719 1.762l-3.16 1.32c-0.508 0.773-0.852 1.52-1.039 2.238-0.375 1.442 0.254 2.016 1.879 1.719 1.601-0.266 2.879-0.719 3.84-1.359 0.535-0.371 1.281-0.918 2.242-1.641 2.023-1.199 4.453-1.293 7.277-0.277 1.148 0.425 1.348 0.945 0.602 1.558l-1.442 0.801z" inkscape:connector-curvature="0"/>
      <path id="path574" style="fill-rule:evenodd;fill:#a28950" d="m6.789 20.011c-0.535 0-1-0.133-1.402-0.402-0.106 1.016 0.547 1.402 1.961 1.16 1.601-0.266 2.879-0.719 3.84-1.359 0.535-0.371 1.281-0.918 2.242-1.641 1.144-0.691 2.531-1 4.156-0.918l-0.398-0.039c-1.227-0.16-2.946 0.293-5.161 1.359-2.398 1.172-4.144 1.786-5.238 1.84z" inkscape:connector-curvature="0"/>
      <path id="path576" style="fill-rule:evenodd;fill:#655732" d="m26.348 17.933c0.187-0.187 0.265-0.402 0.238-0.641-0.211-0.828-1.359-1.667-3.438-2.519-2.32-0.934-4.574-1.281-6.761-1.043-1.973 0.242-4.211 0.828-6.719 1.762l-3.16 1.32c-0.32 0.48-0.586 1.012-0.801 1.598-0.453 1.121-0.437 1.855 0.039 2.199 1.707-0.399 2.84-0.957 3.402-1.68 2.641-3.547 6.305-4.785 11-3.719 1.918 0.426 3.293 0.829 4.122 1.2 0.933 0.402 1.625 0.906 2.078 1.523z" inkscape:connector-curvature="0"/>
      <path id="path578" style="fill-rule:evenodd;fill:#393631" d="m16.387 17.492-2.598 0.718 0.641 0.239c0.664 0.16 1.586 0.281 2.758 0.363 1.175 0.078 2.187 0.453 3.039 1.117 0.429 0.348 0.734 0.68 0.921 1l1.559-1.437c-0.371-0.586-0.918-1.094-1.641-1.52-0.453-0.293-1.293-0.469-2.519-0.523-0.906-0.051-1.625-0.039-2.16 0.043z" inkscape:connector-curvature="0"/>
      <path id="path580" style="fill-rule:evenodd;fill:#493d24" d="m26.586 17.332v-0.04c-0.211-0.828-1.359-1.667-3.438-2.523-2.32-0.934-4.574-1.277-6.761-1.039-2.692 0.293-5.852 1.27-9.481 2.922 0.082 0.613 0.055 1.265-0.078 1.957l3.879-1.399c1.734-1.574 3.789-2.359 6.16-2.359 0.321-0.16 0.695-0.242 1.121-0.242 1.574-0.024 3.094 0.215 4.559 0.723 1.199 0.425 2.547 1.093 4.039 2z" inkscape:connector-curvature="0"/>
      <path id="path582" style="fill-rule:evenodd;fill:#675835" d="m4.586 9.011 4.402-1.562c3.332-1.09 6-1.774 8-2.039 3.172-0.399 5.442-0.598 6.801-0.598l-2.402-1.723c-4.266 0.348-7.867 0.989-10.801 1.922-1.84 0.586-3.359 1.133-4.559 1.641l-1.238 0.558-0.203 1.801z" inkscape:connector-curvature="0"/>
      <path id="path584" style="fill-rule:evenodd;fill:#4b3f28" d="m17.746 5.332c2.828-0.348 4.84-0.52 6.043-0.52l-2.402-1.719c-1.039 0.078-2.266 0.227-3.68 0.438l0.039 1.801z" inkscape:connector-curvature="0"/>
      <path id="path586" style="fill-rule:evenodd;fill:#76653f" d="m6.586 7.011c0.082 0.719 0.414 1.133 1 1.239 0.402 0.054 1.137-0.028 2.203-0.239 0.664-0.133 1.797-0.601 3.399-1.402l-0.239-0.719c-0.16-0.586-0.281-1.215-0.363-1.879-0.106-0.828-0.559-1.386-1.359-1.679-0.852-0.293-1.864-0.2-3.039 0.277-1.04 0.43-1.626 1.082-1.758 1.961-0.055 0.32 0 1.133 0.156 2.441z" inkscape:connector-curvature="0"/>
      <path id="path588" style="fill-rule:evenodd;fill:#655735" d="m10.906 4.812c0.215-0.906 0.055-1.641-0.476-2.203-0.242-0.238-0.547-0.359-0.922-0.359-0.481 0.109-0.922 0.226-1.32 0.359-0.481 0.242-0.801 0.43-0.961 0.562 2.269-0.32 3.242-0.039 2.921 0.84-0.347-0.16-0.707-0.199-1.082-0.121 0.641 0 1.254 0.309 1.84 0.922z" inkscape:connector-curvature="0"/>
      <path id="path590" style="fill-rule:evenodd;fill:#655735" d="m9.066 4.691c-0.586-0.133-1.144 0.039-1.679 0.519-0.051 0.188-0.078 0.309-0.078 0.36 0.851-0.559 1.492-0.84 1.918-0.84l-0.161-0.039z" inkscape:connector-curvature="0"/>
      <path id="path592" style="fill-rule:evenodd;fill:#493e26" d="m6.43 6.171 0.957-0.961c0.535-0.48 1.093-0.652 1.679-0.519l0.161 0.039c0.375 0.105 0.828 0.426 1.359 0.961 0.562 0.613 0.961 0.984 1.203 1.121l0.16 0.398 1.239-0.601-0.239-0.719c-0.16-0.586-0.281-1.215-0.363-1.879-0.106-0.64-0.426-1.121-0.957-1.441-0.563-0.32-1.266-0.426-2.121-0.32 0.375 0 0.68 0.121 0.922 0.359 0.531 0.562 0.691 1.297 0.476 2.203-0.586-0.613-1.199-0.922-1.84-0.922l-0.878 0.082c-0.825 0.211-1.442 0.664-1.84 1.36l0.082 0.839z" inkscape:connector-curvature="0"/>
      <g id="g594">
        <g id="g596" clip-path="url(#clipPath598)">
          <g id="g602" transform="matrix(.8 0 0 -.28104 4.7877 14.586)">
            <g id="g628" mask="url(#mask620)">
              <path id="path638" style="fill-rule:evenodd;fill:url(#radialGradient630)" d="m16.387 17.492c0.828-0.028 1.519-0.149 2.082-0.36 0.586-0.215 0.879-0.468 0.879-0.761s-0.305-0.559-0.918-0.801c-0.618-0.211-1.364-0.32-2.242-0.32-0.614 0-1.266 0.082-1.961 0.242 0.375 0.32 0.839 0.84 1.402 1.558l0.117 0.242 0.641 0.2z" inkscape:connector-curvature="0"/>
            </g>
          </g>
        </g>
      </g>
      <path id="path640" style="fill-rule:evenodd;fill:#f4d8e1" d="m14.508 15.769c-0.133 0.402-0.121 1.055 0.039 1.961 0.187 1.043 0.519 1.562 1 1.562 0.746 0 1.387-0.652 1.922-1.96 0.183-0.293 0.051-0.575-0.403-0.84-0.773-0.481-1.238-0.719-1.398-0.719h-1.16v-0.004z" inkscape:connector-curvature="0"/>
      <g id="g642">
        <g id="g644">
          <g id="g650">
            <path id="path658" style="fill-rule:evenodd;fill:url(#linearGradient652)" d="m14.508 15.769c0 0.641 0.066 1.27 0.199 1.883 0.188 1.039 0.508 1.558 0.961 1.558 0.719 0 1.387-0.679 2-2.039 0.051-0.16 0.078-0.265 0.078-0.32-0.027-0.133-0.184-0.293-0.476-0.48-0.829-0.481-1.309-0.719-1.442-0.719l-1.32 0.117z" inkscape:connector-curvature="0"/>
          </g>
        </g>
      </g>
      <path id="path660" style="fill-rule:evenodd;fill:#f4d8e1" d="m17.508 17.292c0.187-0.296 0.054-0.574-0.399-0.843l-1.082-0.719h-0.121l-0.078-0.039c-0.105 0.215-0.172 0.707-0.199 1.48-0.027 0.801 0.012 1.305 0.117 1.52 0.137 0.266 0.309 0.387 0.524 0.359 0.398-0.293 0.812-0.879 1.238-1.758z" inkscape:connector-curvature="0"/>
      <g id="g662">
        <g id="g664">
          <g id="g670">
            <path id="path678" style="fill-rule:evenodd;fill:url(#linearGradient672)" d="m17.27 16.371c-0.829-0.481-1.309-0.719-1.442-0.719-0.105 1.598-0.094 2.57 0.039 2.918 0.133 0.265 0.309 0.402 0.52 0.402 0.402-0.297 0.828-0.894 1.281-1.801 0.051-0.16 0.078-0.265 0.078-0.32-0.023-0.133-0.184-0.293-0.476-0.48z" inkscape:connector-curvature="0"/>
          </g>
        </g>
      </g>
    </g>
  </g>
<metadata><rdf:RDF><cc:Work><dc:format>image/svg+xml</dc:format><dc:type rdf:resource="http://purl.org/dc/dcmitype/StillImage"/><cc:license rdf:resource="http://creativecommons.org/licenses/publicdomain/"/><dc:publisher><cc:Agent rdf:about="http://openclipart.org/"><dc:title>Openclipart</dc:title></cc:Agent></dc:publisher></cc:Work><cc:License rdf:about="http://creativecommons.org/licenses/publicdomain/"><cc:permits rdf:resource="http://creativecommons.org/ns#Reproduction"/><cc:permits rdf:resource="http://creativecommons.org/ns#Distribution"/><cc:permits rdf:resource="http://creativecommons.org/ns#DerivativeWorks"/></cc:License></rdf:RDF></metadata></svg>
