<?xml version="1.0" encoding="UTF-8" standalone="no"?>
<!-- Created with Inkscape (http://www.inkscape.org/) -->
<svg xmlns:inkscape="http://www.inkscape.org/namespaces/inkscape" xmlns:rdf="http://www.w3.org/1999/02/22-rdf-syntax-ns#" xmlns="http://www.w3.org/2000/svg" xmlns:xlink="http://www.w3.org/1999/xlink" xmlns:ns1="http://sozi.baierouge.fr" xmlns:cc="http://creativecommons.org/ns#" xmlns:sodipodi="http://sodipodi.sourceforge.net/DTD/sodipodi-0.dtd" xmlns:dc="http://purl.org/dc/elements/1.1/" id="svg2" xml:space="preserve" viewBox="0 0 32.195 27.156" version="1.1" inkscape:version="0.91 r13725">
  <defs id="defs6">
    <linearGradient id="linearGradient24" y2="-16351" gradientUnits="userSpaceOnUse" x2="13.035" gradientTransform="matrix(.00011722 -.8 .8 -.0008 13083 6.8222)" y1="-16351" x1="6.21">
      <stop id="stop26" style="stop-color:#8f8f8f" offset="0"/>
      <stop id="stop28" style="stop-color:#e8e8e8" offset=".22750"/>
      <stop id="stop30" style="stop-color:#696969" offset="1"/>
    </linearGradient>
    <linearGradient id="linearGradient44" y2="-13815" gradientUnits="userSpaceOnUse" x2="-1912.6" gradientTransform="matrix(.21808 -.76968 .76968 .21808 11053 1548.7)" y1="-13815" x1="-1921.8">
      <stop id="stop46" style="stop-color:#e8e8e8" offset="0"/>
      <stop id="stop48" style="stop-color:#ededed" offset="1"/>
    </linearGradient>
    <linearGradient id="linearGradient62" y2="-13815" gradientUnits="userSpaceOnUse" x2="-1912.6" gradientTransform="matrix(.21808 -.76968 .76968 .21808 11053 1548.6)" y1="-13815" x1="-1921.8">
      <stop id="stop64" style="stop-color:#e8e8e8" offset="0"/>
      <stop id="stop66" style="stop-color:#878787" offset="1"/>
    </linearGradient>
    <linearGradient id="linearGradient80" y2="-17621" gradientUnits="userSpaceOnUse" x2="1516.9" gradientTransform="matrix(-.1364 -.78832 .78832 -.1364 14103 -1198.2)" y1="-17621" x1="1515.6">
      <stop id="stop82" style="stop-color:#8f8f8f" offset="0"/>
      <stop id="stop84" style="stop-color:#e8e8e8" offset=".22750"/>
      <stop id="stop86" style="stop-color:#696969" offset="1"/>
    </linearGradient>
    <linearGradient id="linearGradient100" y2="317.99" gradientUnits="userSpaceOnUse" x2="365.19" gradientTransform="matrix(.79928 .03424 -.03424 .79928 -269.34 -264.74)" y1="317.99" x1="363.44">
      <stop id="stop102" style="stop-color:#3d6c08" offset="0"/>
      <stop id="stop104" style="stop-color:#315705" offset=".93730"/>
      <stop id="stop106" style="stop-color:#315705" offset="1"/>
    </linearGradient>
    <linearGradient id="linearGradient120" y2="321.48" gradientUnits="userSpaceOnUse" x2="373.65" gradientTransform="matrix(.79928 .03424 -.03424 .79928 -269.34 -264.74)" y1="321.48" x1="371.9">
      <stop id="stop122" style="stop-color:#5f4e29" offset="0"/>
      <stop id="stop124" style="stop-color:#3a2b0e" offset=".93730"/>
      <stop id="stop126" style="stop-color:#3a2b0e" offset="1"/>
    </linearGradient>
    <linearGradient id="linearGradient140" y2="-13468" gradientUnits="userSpaceOnUse" x2="-2087.6" gradientTransform="matrix(.24448 -.76176 .76176 .24448 10776 1706.3)" y1="-13468" x1="-2094">
      <stop id="stop142" style="stop-color:#487c10" offset="0"/>
      <stop id="stop144" style="stop-color:#2e4d04" offset=".93730"/>
      <stop id="stop146" style="stop-color:#2e4d04" offset="1"/>
    </linearGradient>
    <linearGradient id="linearGradient160" y2="-9936.8" gradientUnits="userSpaceOnUse" x2="-3236.7" gradientTransform="matrix(.47376 -.64464 .64464 .47376 7943.5 2623.9)" y1="-9936.8" x1="-3242.9">
      <stop id="stop162" style="stop-color:#55901b" offset="0"/>
      <stop id="stop164" style="stop-color:#477c0b" offset=".93730"/>
      <stop id="stop166" style="stop-color:#477c0b" offset="1"/>
    </linearGradient>
    <linearGradient id="linearGradient180" y2="-9935" gradientUnits="userSpaceOnUse" x2="-3236.6" gradientTransform="matrix(.47376 -.64464 .64464 .47376 7943.5 2623.9)" y1="-9935" x1="-3242.8">
      <stop id="stop182" style="stop-color:#55901b" offset="0"/>
      <stop id="stop184" style="stop-color:#477c0b" offset=".93730"/>
      <stop id="stop186" style="stop-color:#477c0b" offset="1"/>
    </linearGradient>
    <linearGradient id="linearGradient200" y2="-9933.1" gradientUnits="userSpaceOnUse" x2="-3236.7" gradientTransform="matrix(.47376 -.64464 .64464 .47376 7943.5 2623.9)" y1="-9933.1" x1="-3242.9">
      <stop id="stop202" style="stop-color:#55901b" offset="0"/>
      <stop id="stop204" style="stop-color:#477c0b" offset=".93730"/>
      <stop id="stop206" style="stop-color:#477c0b" offset="1"/>
    </linearGradient>
    <linearGradient id="linearGradient220" y2="-9936" gradientUnits="userSpaceOnUse" x2="-3236.6" gradientTransform="matrix(.47376 -.64464 .64464 .47376 7943.5 2623.9)" y1="-9936" x1="-3242.8">
      <stop id="stop222" style="stop-color:#55901b" offset="0"/>
      <stop id="stop224" style="stop-color:#477c0b" offset=".93730"/>
      <stop id="stop226" style="stop-color:#477c0b" offset="1"/>
    </linearGradient>
    <linearGradient id="linearGradient240" y2="-9934.2" gradientUnits="userSpaceOnUse" x2="-3236.7" gradientTransform="matrix(.47376 -.64464 .64464 .47376 7943.5 2623.9)" y1="-9934.2" x1="-3242.9">
      <stop id="stop242" style="stop-color:#55901b" offset="0"/>
      <stop id="stop244" style="stop-color:#477c0b" offset=".93730"/>
      <stop id="stop246" style="stop-color:#477c0b" offset="1"/>
    </linearGradient>
    <linearGradient id="linearGradient260" y2="-13443" gradientUnits="userSpaceOnUse" x2="-2089.3" gradientTransform="matrix(.24544 -.76144 .76144 .24544 10766 1711.6)" y1="-13443" x1="-2108.5">
      <stop id="stop262" style="stop-color:#487c10" offset="0"/>
      <stop id="stop264" style="stop-color:#2e4d04" offset=".93730"/>
      <stop id="stop266" style="stop-color:#2e4d04" offset="1"/>
    </linearGradient>
    <linearGradient id="linearGradient280" y2="-10094" gradientUnits="userSpaceOnUse" x2="-3204.5" gradientTransform="matrix(.46432 -.65152 .65152 .46432 8077.6 2602.4)" y1="-10094" x1="-3220.8">
      <stop id="stop282" style="stop-color:#55901b" offset="0"/>
      <stop id="stop284" style="stop-color:#477c0b" offset=".93730"/>
      <stop id="stop286" style="stop-color:#477c0b" offset="1"/>
    </linearGradient>
    <linearGradient id="linearGradient300" y2="-10097" gradientUnits="userSpaceOnUse" x2="-3204.5" gradientTransform="matrix(.46432 -.65152 .65152 .46432 8077.6 2602.4)" y1="-10097" x1="-3220.8">
      <stop id="stop302" style="stop-color:#55901b" offset="0"/>
      <stop id="stop304" style="stop-color:#477c0b" offset=".93730"/>
      <stop id="stop306" style="stop-color:#477c0b" offset="1"/>
    </linearGradient>
    <linearGradient id="linearGradient320" y2="-10099" gradientUnits="userSpaceOnUse" x2="-3204.5" gradientTransform="matrix(.46432 -.65152 .65152 .46432 8077.6 2602.4)" y1="-10099" x1="-3220.8">
      <stop id="stop322" style="stop-color:#55901b" offset="0"/>
      <stop id="stop324" style="stop-color:#477c0b" offset=".93730"/>
      <stop id="stop326" style="stop-color:#477c0b" offset="1"/>
    </linearGradient>
    <linearGradient id="linearGradient340" y2="-10092" gradientUnits="userSpaceOnUse" x2="-3204.5" gradientTransform="matrix(.46432 -.65152 .65152 .46432 8077.6 2602.4)" y1="-10092" x1="-3220.8">
      <stop id="stop342" style="stop-color:#55901b" offset="0"/>
      <stop id="stop344" style="stop-color:#477c0b" offset=".93730"/>
      <stop id="stop346" style="stop-color:#477c0b" offset="1"/>
    </linearGradient>
    <linearGradient id="linearGradient380" y2="-10097" gradientUnits="userSpaceOnUse" x2="-3204.6" gradientTransform="matrix(.46432 -.65152 .65152 .46432 8077.6 2602.4)" y1="-10097" x1="-3220.8">
      <stop id="stop382" style="stop-color:#55901b" offset="0"/>
      <stop id="stop384" style="stop-color:#477c0b" offset=".93730"/>
      <stop id="stop386" style="stop-color:#477c0b" offset="1"/>
    </linearGradient>
    <linearGradient id="linearGradient400" y2="-10090" gradientUnits="userSpaceOnUse" x2="-3204.5" gradientTransform="matrix(.46432 -.65152 .65152 .46432 8077.6 2602.4)" y1="-10090" x1="-3220.8">
      <stop id="stop402" style="stop-color:#55901b" offset="0"/>
      <stop id="stop404" style="stop-color:#477c0b" offset=".93730"/>
      <stop id="stop406" style="stop-color:#477c0b" offset="1"/>
    </linearGradient>
    <linearGradient id="linearGradient440" y2="-10094" gradientUnits="userSpaceOnUse" x2="-3204.5" gradientTransform="matrix(.46432 -.65152 .65152 .46432 8077.6 2602.4)" y1="-10094" x1="-3220.7">
      <stop id="stop442" style="stop-color:#55901b" offset="0"/>
      <stop id="stop444" style="stop-color:#477c0b" offset=".93730"/>
      <stop id="stop446" style="stop-color:#477c0b" offset="1"/>
    </linearGradient>
    <linearGradient id="linearGradient460" y2="-10087" gradientUnits="userSpaceOnUse" x2="-3204.5" gradientTransform="matrix(.46432 -.65152 .65152 .46432 8077.6 2602.4)" y1="-10087" x1="-3220.8">
      <stop id="stop462" style="stop-color:#55901b" offset="0"/>
      <stop id="stop464" style="stop-color:#477c0b" offset=".93730"/>
      <stop id="stop466" style="stop-color:#477c0b" offset="1"/>
    </linearGradient>
    <linearGradient id="linearGradient480" y2="-10089" gradientUnits="userSpaceOnUse" x2="-3204.5" gradientTransform="matrix(.46432 -.65152 .65152 .46432 8077.6 2602.4)" y1="-10089" x1="-3220.8">
      <stop id="stop482" style="stop-color:#55901b" offset="0"/>
      <stop id="stop484" style="stop-color:#477c0b" offset=".93730"/>
      <stop id="stop486" style="stop-color:#477c0b" offset="1"/>
    </linearGradient>
    <linearGradient id="linearGradient500" y2="-10092" gradientUnits="userSpaceOnUse" x2="-3204.6" gradientTransform="matrix(.46432 -.65152 .65152 .46432 8077.6 2602.4)" y1="-10092" x1="-3220.8">
      <stop id="stop502" style="stop-color:#55901b" offset="0"/>
      <stop id="stop504" style="stop-color:#477c0b" offset=".93730"/>
      <stop id="stop506" style="stop-color:#477c0b" offset="1"/>
    </linearGradient>
    <linearGradient id="linearGradient520" y2="-12877" gradientUnits="userSpaceOnUse" x2="-2354.3" gradientTransform="matrix(.28592 -.7472 .7472 .28592 10318 1926)" y1="-12877" x1="-2371.3">
      <stop id="stop522" style="stop-color:#a79876" offset="0"/>
      <stop id="stop524" style="stop-color:#685c44" offset="1"/>
    </linearGradient>
    <linearGradient id="linearGradient538" y2="-4.4678" gradientUnits="userSpaceOnUse" x2="24.25" gradientTransform="matrix(.8 0 0 .8 4.7877 21.325)" y1="-4.4678" x1="0.0498">
      <stop id="stop540" style="stop-color:#55901b" offset="0"/>
      <stop id="stop542" style="stop-color:#477c0b" offset=".93730"/>
      <stop id="stop544" style="stop-color:#477c0b" offset="1"/>
    </linearGradient>
    <radialGradient id="radialGradient640" gradientUnits="userSpaceOnUse" cy="-14.351" cx="18.45" gradientTransform="matrix(.8 0 0 -.8 4.7877 -1.6361)" r="1.5125">
      <stop id="stop642" style="stop-color:#4d3b1d" offset="0"/>
      <stop id="stop644" style="stop-color:#2b1d04" offset="1"/>
    </radialGradient>
    <radialGradient id="radialGradient660" gradientUnits="userSpaceOnUse" cy="-211.81" cx="19.613" gradientTransform="matrix(.79976 -.01936 0 -.65784 6.701 -127.4)" r="1.5505">
      <stop id="stop662" style="stop-color:#4d3b1d" offset="0"/>
      <stop id="stop664" style="stop-color:#2b1d04" offset="1"/>
    </radialGradient>
    <linearGradient id="linearGradient678" y2="-6410.4" gradientUnits="userSpaceOnUse" x2="-3231.2" gradientTransform="matrix(.64608 -.47176 .47176 .64608 5121.1 2619.8)" y1="-6410.4" x1="-3235.1">
      <stop id="stop680" style="stop-color:#4a810c" offset="0"/>
      <stop id="stop682" style="stop-color:#2f5405" offset=".93730"/>
      <stop id="stop684" style="stop-color:#2f5405" offset="1"/>
    </linearGradient>
  </defs>
  <g id="g10" transform="matrix(1.25 0 0 -1.25 0 27.156)">
    <g id="g12">
      <g id="g14">
        <g id="g16">
          <g id="g22">
            <path id="path32" style="fill-rule:evenodd;fill:url(#linearGradient24)" d="m3.348 10.244c0.054 0.481-0.067 0.789-0.36 0.922l-0.359 0.039c-0.188 0-0.348-0.027-0.481-0.082-0.425-0.133-0.668-0.426-0.718-0.879-0.028-0.398 0.078-0.679 0.316-0.84 0.348-0.187 0.695-0.187 1.043 0 0.32 0.188 0.508 0.469 0.559 0.84zm-2.762 3.719c0.082 0.641 0.402 0.973 0.961 1 1.094 0.027 1.867-0.504 2.32-1.598 0.403-0.988 0.43-1.64 0.082-1.961 0.348-0.425 0.321-1.066-0.082-1.918-0.453-0.933-1.226-1.226-2.32-0.882-0.559 0.187-0.879 0.613-0.961 1.281-0.106 0.691 0.094 1.226 0.602 1.601l0.359 0.278-0.359 0.359c-0.508 0.563-0.708 1.176-0.602 1.84zm2.762-1.199c-0.051 0.402-0.239 0.734-0.559 1-0.348 0.32-0.695 0.429-1.043 0.32-0.238-0.105-0.344-0.375-0.316-0.801 0.05-0.453 0.293-0.812 0.718-1.078l0.481-0.242 0.359-0.039c0.293 0.027 0.414 0.309 0.36 0.84z" inkscape:connector-curvature="0"/>
          </g>
        </g>
      </g>
      <g id="g34">
        <g id="g36">
          <g id="g42">
            <path id="path50" style="fill-rule:evenodd;fill:url(#linearGradient44)" d="m1.789 10.963c-0.453-0.105-0.695-0.387-0.723-0.84-0.023-0.426 0.082-0.719 0.321-0.879 0.32-0.215 0.656-0.215 1 0 0.32 0.188 0.508 0.465 0.562 0.84 0.078 0.481-0.027 0.774-0.32 0.879l-0.359 0.082-0.481-0.082zm-1.601 2.84c0.109 0.64 0.441 0.973 1 1 1.093 0.027 1.867-0.504 2.32-1.598 0.398-0.988 0.414-1.64 0.039-1.961 0.375-0.398 0.359-1.039-0.039-1.918-0.453-0.961-1.227-1.269-2.32-0.922-0.559 0.215-0.895 0.653-1 1.321-0.106 0.691 0.093 1.226 0.601 1.601l0.399 0.278-0.399 0.359c-0.508 0.563-0.707 1.176-0.601 1.84zm1.199 0.121c-0.239-0.106-0.344-0.375-0.321-0.801 0.028-0.48 0.27-0.84 0.723-1.078l0.481-0.242 0.359-0.039c0.293 0.027 0.398 0.304 0.32 0.84-0.054 0.402-0.242 0.734-0.562 1-0.344 0.32-0.68 0.425-1 0.32z" inkscape:connector-curvature="0"/>
          </g>
        </g>
      </g>
      <g id="g52">
        <g id="g54">
          <g id="g60">
            <path id="path68" style="fill-rule:evenodd;fill:url(#linearGradient62)" d="m1.629 10.885c-0.453-0.106-0.695-0.387-0.723-0.84-0.023-0.426 0.082-0.719 0.321-0.879 0.32-0.215 0.656-0.215 1 0 0.32 0.184 0.507 0.465 0.562 0.84 0.106 0.504 0 0.797-0.32 0.879l-0.36 0.078-0.48-0.078zm-1.602 2.84c0.106 0.64 0.442 0.972 1 1 1.094 0.027 1.868-0.508 2.321-1.602 0.398-0.984 0.414-1.637 0.039-1.957 0.375-0.402 0.359-1.043-0.039-1.922-0.453-0.961-1.227-1.265-2.321-0.918-0.558 0.211-0.894 0.653-1 1.321-0.105 0.691 0.094 1.222 0.602 1.597l0.398 0.282-0.398 0.359c-0.508 0.558-0.707 1.172-0.602 1.84zm2.762-1.199c-0.055 0.398-0.242 0.734-0.562 1-0.344 0.32-0.68 0.425-1 0.32-0.239-0.11-0.344-0.375-0.321-0.801 0.028-0.48 0.27-0.84 0.723-1.082l0.48-0.238 0.36-0.039c0.293 0.027 0.398 0.304 0.32 0.84z" inkscape:connector-curvature="0"/>
          </g>
        </g>
      </g>
      <g id="g70">
        <g id="g72">
          <g id="g78">
            <path id="path88" style="fill-rule:evenodd;fill:url(#linearGradient80)" d="m8.148 9.924-4.32 0.641c-0.242-0.028-0.359 0.105-0.359 0.398 0 0.188 0.066 0.32 0.199 0.402 0.055 0.051 0.105 0.078 0.16 0.078l4.32-0.64v-0.879z" inkscape:connector-curvature="0"/>
          </g>
        </g>
      </g>
      <g id="g90">
        <g id="g92">
          <g id="g98">
            <path id="path108" style="fill-rule:evenodd;fill:url(#linearGradient100)" d="m9.43 3.725 3.718-0.282c-0.586-2.398-1.148-3.531-1.679-3.398-0.641 0.16-1.321 1.387-2.039 3.68z" inkscape:connector-curvature="0"/>
          </g>
        </g>
      </g>
      <g id="g110">
        <g id="g112">
          <g id="g118">
            <path id="path128" style="fill-rule:evenodd;fill:url(#linearGradient120)" d="m16.066 6.803 3.723-0.277c-0.586-2.403-1.148-3.536-1.68-3.403-0.64 0.16-1.32 1.387-2.043 3.68z" inkscape:connector-curvature="0"/>
          </g>
        </g>
      </g>
      <g id="g130">
        <g id="g132">
          <g id="g138">
            <path id="path148" style="fill-rule:evenodd;fill:url(#linearGradient140)" d="m5.668 9.565 3.078-1.801v-1.879c-0.133-1.281-0.519-2.067-1.16-2.359-0.691-0.321-1.691-0.309-3 0.039-1.012 0.265-1.824 0.586-2.438 0.961-0.347 0.187-0.402 0.453-0.16 0.8 0.078 0.106 0.504 0.532 1.282 1.278 0.773 0.746 1.57 1.734 2.398 2.961z" inkscape:connector-curvature="0"/>
          </g>
        </g>
      </g>
      <g id="g150">
        <g id="g152">
          <g id="g158">
            <path id="path168" style="fill-rule:evenodd;fill:url(#linearGradient160)" d="m3.105 5.326c0.161-0.242 0.083-0.441-0.238-0.601-0.265-0.16-0.48-0.133-0.64 0.078-0.106 0.269-0.028 0.469 0.242 0.601 0.105 0.082 0.238 0.106 0.398 0.082 0.106-0.027 0.188-0.082 0.238-0.16z" inkscape:connector-curvature="0"/>
          </g>
        </g>
      </g>
      <g id="g170">
        <g id="g172">
          <g id="g178">
            <path id="path188" style="fill-rule:evenodd;fill:url(#linearGradient180)" d="m4.105 6.404c0.215-0.214 0.204-0.425-0.039-0.64-0.187-0.266-0.398-0.305-0.64-0.117-0.184 0.183-0.172 0.398 0.043 0.636 0.238 0.243 0.453 0.282 0.636 0.121z" inkscape:connector-curvature="0"/>
          </g>
        </g>
      </g>
      <g id="g190">
        <g id="g192">
          <g id="g198">
            <path id="path208" style="fill-rule:evenodd;fill:url(#linearGradient200)" d="m5.105 7.526c0.083-0.055 0.122-0.149 0.122-0.282s-0.055-0.254-0.161-0.359c-0.187-0.238-0.398-0.266-0.64-0.082-0.184 0.16-0.172 0.375 0.043 0.64 0.238 0.243 0.453 0.27 0.636 0.083z" inkscape:connector-curvature="0"/>
          </g>
        </g>
      </g>
      <g id="g210">
        <g id="g212">
          <g id="g218">
            <path id="path228" style="fill-rule:evenodd;fill:url(#linearGradient220)" d="m4.188 4.924c0.132-0.211 0.066-0.414-0.2-0.598-0.293-0.187-0.508-0.16-0.64 0.078-0.133 0.215-0.055 0.414 0.238 0.602 0.109 0.078 0.226 0.105 0.363 0.078 0.133 0 0.211-0.055 0.239-0.16z" inkscape:connector-curvature="0"/>
          </g>
        </g>
      </g>
      <g id="g230">
        <g id="g232">
          <g id="g238">
            <path id="path248" style="fill-rule:evenodd;fill:url(#linearGradient240)" d="m5.387 5.643c0.16-0.266 0.093-0.465-0.199-0.598-0.266-0.187-0.481-0.176-0.641 0.039-0.16 0.242-0.078 0.442 0.242 0.602 0.106 0.078 0.227 0.105 0.359 0.078 0.106 0 0.188-0.039 0.239-0.121z" inkscape:connector-curvature="0"/>
          </g>
        </g>
      </g>
      <g id="g250">
        <g id="g252">
          <g id="g258">
            <path id="path268" style="fill-rule:evenodd;fill:url(#linearGradient260)" d="m12.586 2.326c-0.637 0.028-1.797 0.16-3.477 0.399-1.707 0.238-2.722 0.386-3.043 0.441-0.531 0.106-0.906 0.344-1.117 0.719-0.297 0.535-0.457 1.613-0.48 3.238-0.106 2.59-0.16 4.481-0.16 5.68 0.027 2.133 0.332 3.402 0.918 3.801 0.695 0.507 1.921 1.226 3.679 2.16 2.028 1.121 3.321 1.695 3.883 1.722 0.746 0.024 2.293-0.121 4.641-0.441 2.504-0.348 4.05-0.519 4.636-0.519 0.883 0 1.547-0.172 2-0.52 0.297-0.242 0.52-0.613 0.68-1.121 0.137-0.426 0.203-3.508 0.203-9.238v-1.161c-0.027-0.402-0.148-0.761-0.363-1.082-0.238-0.347-0.973-0.945-2.199-1.8-1.067-0.774-1.84-1.278-2.321-1.52-1.359-0.746-2.371-1.121-3.039-1.121-1.945 0.242-3.425 0.363-4.441 0.363z" inkscape:connector-curvature="0"/>
          </g>
        </g>
      </g>
      <g id="g270">
        <g id="g272">
          <g id="g278">
            <path id="path288" style="fill-rule:evenodd;fill:url(#linearGradient280)" d="m7.066 13.123c0-0.293-0.078-0.543-0.238-0.758-0.16-0.187-0.348-0.281-0.558-0.281-0.215 0-0.391 0.094-0.524 0.281-0.16 0.215-0.238 0.465-0.238 0.758 0 0.297 0.078 0.563 0.238 0.801 0.16 0.215 0.336 0.32 0.524 0.32 0.21 0 0.398-0.105 0.558-0.32 0.16-0.238 0.238-0.508 0.238-0.801z" inkscape:connector-curvature="0"/>
          </g>
        </g>
      </g>
      <g id="g290">
        <g id="g292">
          <g id="g298">
            <path id="path308" style="fill-rule:evenodd;fill:url(#linearGradient300)" d="m7.066 9.963c0-0.293-0.078-0.547-0.238-0.758-0.16-0.215-0.348-0.32-0.558-0.32-0.215 0-0.387 0.105-0.524 0.32-0.16 0.215-0.238 0.465-0.238 0.758s0.078 0.563 0.238 0.801c0.16 0.215 0.336 0.32 0.524 0.32 0.21 0 0.398-0.105 0.558-0.32 0.16-0.238 0.238-0.508 0.238-0.801z" inkscape:connector-curvature="0"/>
          </g>
        </g>
      </g>
      <g id="g310">
        <g id="g312">
          <g id="g318">
            <path id="path328" style="fill-rule:evenodd;fill:url(#linearGradient320)" d="m7.066 6.526c0-0.293-0.078-0.563-0.238-0.801-0.16-0.215-0.348-0.321-0.558-0.321-0.188 0-0.364 0.106-0.524 0.321-0.16 0.238-0.238 0.508-0.238 0.801 0 0.292 0.078 0.546 0.238 0.757 0.137 0.215 0.309 0.321 0.524 0.321 0.21 0 0.398-0.106 0.558-0.321 0.16-0.211 0.238-0.465 0.238-0.757z" inkscape:connector-curvature="0"/>
          </g>
        </g>
      </g>
      <g id="g330">
        <g id="g332">
          <g id="g338">
            <path id="path348" style="fill-rule:evenodd;fill:url(#linearGradient340)" d="m9.508 12.764c0-0.293-0.082-0.547-0.242-0.758-0.133-0.215-0.305-0.32-0.52-0.32-0.211 0-0.398 0.105-0.558 0.32-0.133 0.211-0.2 0.465-0.2 0.758s0.067 0.547 0.2 0.762c0.16 0.21 0.347 0.32 0.558 0.32 0.215 0 0.387-0.11 0.524-0.32 0.16-0.215 0.238-0.469 0.238-0.762z" inkscape:connector-curvature="0"/>
          </g>
        </g>
      </g>
      <g id="g350">
        <g id="g352">
          <g id="g358">
            <path id="path368" style="fill:url(#linearGradient280);fill-rule:evenodd" d="m9.508 9.604c0-0.293-0.082-0.559-0.242-0.801-0.133-0.211-0.305-0.317-0.52-0.317-0.211 0-0.398 0.106-0.558 0.317-0.133 0.242-0.2 0.508-0.2 0.801s0.067 0.547 0.2 0.761c0.16 0.215 0.347 0.321 0.558 0.321 0.215 0 0.387-0.106 0.52-0.321 0.164-0.214 0.242-0.468 0.242-0.761z" inkscape:connector-curvature="0"/>
          </g>
        </g>
      </g>
      <g id="g370">
        <g id="g372">
          <g id="g378">
            <path id="path388" style="fill-rule:evenodd;fill:url(#linearGradient380)" d="m9.508 6.166c0-0.32-0.082-0.586-0.242-0.801-0.133-0.214-0.305-0.32-0.52-0.32-0.211 0-0.398 0.106-0.558 0.32-0.133 0.215-0.2 0.481-0.2 0.801 0 0.293 0.067 0.547 0.2 0.758 0.16 0.215 0.347 0.32 0.558 0.32 0.215 0 0.387-0.105 0.524-0.32 0.16-0.211 0.238-0.465 0.238-0.758z" inkscape:connector-curvature="0"/>
          </g>
        </g>
      </g>
      <g id="g390">
        <g id="g392">
          <g id="g398">
            <path id="path408" style="fill-rule:evenodd;fill:url(#linearGradient400)" d="m12.105 12.486c0-0.296-0.066-0.55-0.199-0.761-0.16-0.215-0.347-0.321-0.558-0.321-0.188 0-0.36 0.106-0.52 0.321s-0.242 0.465-0.242 0.761c0 0.293 0.082 0.543 0.242 0.758 0.133 0.215 0.305 0.321 0.52 0.321 0.214 0 0.398-0.106 0.558-0.321 0.133-0.215 0.199-0.465 0.199-0.758z" inkscape:connector-curvature="0"/>
          </g>
        </g>
      </g>
      <g id="g410">
        <g id="g412">
          <g id="g418">
            <path id="path428" style="fill:url(#linearGradient340);fill-rule:evenodd" d="m12.105 9.326c0-0.297-0.066-0.562-0.199-0.8-0.16-0.215-0.347-0.321-0.558-0.321-0.188 0-0.36 0.106-0.52 0.321-0.16 0.238-0.242 0.503-0.242 0.8 0 0.293 0.082 0.547 0.242 0.758 0.133 0.215 0.305 0.32 0.52 0.32 0.211 0 0.398-0.105 0.558-0.32 0.133-0.215 0.199-0.465 0.199-0.758z" inkscape:connector-curvature="0"/>
          </g>
        </g>
      </g>
      <g id="g430">
        <g id="g432">
          <g id="g438">
            <path id="path448" style="fill-rule:evenodd;fill:url(#linearGradient440)" d="m12.105 5.885c0-0.293-0.066-0.559-0.199-0.801-0.16-0.215-0.347-0.32-0.558-0.32-0.188 0-0.36 0.105-0.52 0.32-0.16 0.242-0.242 0.508-0.242 0.801s0.082 0.547 0.242 0.762c0.133 0.211 0.305 0.316 0.52 0.316 0.211 0 0.398-0.105 0.558-0.316 0.133-0.215 0.199-0.469 0.199-0.762z" inkscape:connector-curvature="0"/>
          </g>
        </g>
      </g>
      <g id="g450">
        <g id="g452">
          <g id="g458">
            <path id="path468" style="fill-rule:evenodd;fill:url(#linearGradient460)" d="m15.188 12.205c0-0.293-0.079-0.558-0.239-0.801-0.137-0.214-0.308-0.32-0.519-0.32-0.215 0-0.403 0.106-0.563 0.32-0.133 0.243-0.199 0.508-0.199 0.801s0.066 0.531 0.199 0.719c0.16 0.215 0.348 0.32 0.563 0.32 0.211 0 0.382-0.105 0.519-0.32 0.156-0.211 0.239-0.453 0.239-0.719z" inkscape:connector-curvature="0"/>
          </g>
        </g>
      </g>
      <g id="g470">
        <g id="g472">
          <g id="g478">
            <path id="path488" style="fill-rule:evenodd;fill:url(#linearGradient480)" d="m15.188 9.006c0-0.293-0.079-0.563-0.239-0.801-0.137-0.215-0.308-0.32-0.519-0.32-0.215 0-0.403 0.105-0.563 0.32-0.133 0.238-0.199 0.508-0.199 0.801s0.066 0.547 0.199 0.758c0.16 0.215 0.348 0.32 0.563 0.32 0.211 0 0.382-0.105 0.519-0.32 0.156-0.211 0.239-0.465 0.239-0.758z" inkscape:connector-curvature="0"/>
          </g>
        </g>
      </g>
      <g id="g490">
        <g id="g492">
          <g id="g498">
            <path id="path508" style="fill-rule:evenodd;fill:url(#linearGradient500)" d="m15.188 5.565c0-0.321-0.079-0.586-0.239-0.801-0.137-0.211-0.308-0.321-0.519-0.321-0.215 0-0.403 0.11-0.563 0.321-0.133 0.215-0.199 0.48-0.199 0.801 0 0.293 0.066 0.546 0.199 0.761 0.16 0.211 0.348 0.321 0.563 0.321 0.211 0 0.382-0.11 0.519-0.321 0.156-0.215 0.239-0.468 0.239-0.761z" inkscape:connector-curvature="0"/>
          </g>
        </g>
      </g>
      <g id="g510">
        <g id="g512">
          <g id="g518">
            <path id="path526" style="fill-rule:evenodd;fill:url(#linearGradient520)" d="m24.746 17.885c0.055-0.16 0.109-0.856 0.16-2.082l0.043-7.156v-1.161c-0.027-0.402-0.148-0.761-0.363-1.082-0.238-0.347-0.973-0.945-2.199-1.8-1.067-0.774-1.84-1.278-2.321-1.52-0.211-0.133-0.718-0.348-1.519-0.641-0.801-0.292-1.305-0.453-1.52-0.48 0.266 0.535 0.387 1.109 0.36 1.723l-0.078 11.199 0.078 0.121c0.16 0.16 0.894 0.559 2.199 1.199 1.441 0.719 2.375 1.215 2.801 1.481 1.121 0.718 1.722 1.117 1.801 1.199 0.292-0.293 0.48-0.629 0.558-1z" inkscape:connector-curvature="0"/>
          </g>
        </g>
      </g>
      <g id="g528">
        <g id="g530">
          <g id="g536">
            <path id="path546" style="fill-rule:evenodd;fill:url(#linearGradient538)" d="m10.43 15.725c-2.989 0.32-4.856 0.453-5.602 0.398 0.133 0.215 0.266 0.375 0.399 0.481 0.695 0.507 1.921 1.226 3.679 2.16 2.028 1.121 3.321 1.695 3.883 1.722 1.84 0.079 4.934-0.242 9.277-0.96 1.149-0.161 1.856-0.375 2.122-0.641-0.266-0.293-0.668-0.613-1.2-0.961-0.402-0.238-1.441-0.773-3.121-1.598-1.492-0.722-2.32-1.16-2.48-1.32-0.692 0.051-3.012 0.293-6.957 0.719z" inkscape:connector-curvature="0"/>
          </g>
        </g>
      </g>
      <path id="path548" style="fill-rule:evenodd;fill:#86b932" d="m9.707 15.526c-0.641 0.05-1.641 0.199-3 0.437l-1.84 0.363 6.082-0.64c1.094-0.133 2.387-0.254 3.879-0.36 1.442-0.109 2.281-0.136 2.52-0.082 0.293 0.028 1.332 0.52 3.121 1.481 1.144 0.613 2.386 1.332 3.719 2.16-0.051-0.32-1.145-1.067-3.282-2.238-2.16-1.204-3.265-1.934-3.32-2.204-0.051-0.292-0.051-3.613 0-9.957-0.051-1.363-0.238-2.203-0.559-2.523l0.161 0.48c0.054 0.243 0.066 1.84 0.039 4.801-0.028 2.934-0.067 4.828-0.118 5.68-0.054 0.934-0.093 1.441-0.121 1.519-0.054 0.161-0.199 0.27-0.441 0.321-0.293 0.082-2.574 0.332-6.84 0.762z" inkscape:connector-curvature="0"/>
      <path id="path550" style="fill-rule:evenodd;fill:#c29f58" d="m15.188 4.244c0.105 0.239 0.281 0.293 0.519 0.16 0.242-0.105 0.309-0.281 0.199-0.519-0.613-1.496-0.863-2.656-0.758-3.481 0.051-0.265-0.054-0.402-0.32-0.402-0.266-0.023-0.426 0.082-0.48 0.32-0.133 0.934 0.144 2.243 0.84 3.922z" inkscape:connector-curvature="0"/>
      <path id="path552" style="fill-rule:evenodd;fill:#c29f58" d="m19.066 2.565c0 0.265 0.137 0.398 0.403 0.398 0.265 0 0.398-0.133 0.398-0.398v-0.879c0-0.266-0.133-0.403-0.398-0.403-0.266 0-0.403 0.121-0.403 0.364v0.918z" inkscape:connector-curvature="0"/>
      <path id="path554" style="fill-rule:evenodd;fill:#c29f58" d="m21.348 2.486c-0.106 0.106-0.16 0.25-0.16 0.438 0.054 0.187 0.082 0.336 0.082 0.441 0.023 0.266 0.171 0.399 0.437 0.399s0.387-0.133 0.359-0.399l-0.078-0.281v-0.078c0.149-0.148 0.133-0.309-0.039-0.48-0.215-0.188-0.414-0.2-0.601-0.04z" inkscape:connector-curvature="0"/>
      <path id="path556" style="fill-rule:evenodd;fill:#c29f58" d="m23.148 5.604c0 0.265 0.133 0.386 0.399 0.359 0.265-0.027 0.402-0.172 0.402-0.437 0-0.321 0.067-0.547 0.199-0.68 0.188-0.188 0.172-0.375-0.039-0.563-0.187-0.183-0.375-0.183-0.562 0-0.266 0.293-0.399 0.735-0.399 1.321z" inkscape:connector-curvature="0"/>
      <path id="path558" style="fill-rule:evenodd;fill:#c29f58" d="m12.828 13.443c-0.105-0.238-0.281-0.304-0.519-0.199-0.243 0.133-0.321 0.321-0.243 0.559 0.133 0.375 0.387 0.75 0.762 1.121 0.348 0.348 0.707 0.602 1.078 0.762 0.883 0.425 1.508 0.437 1.883 0.039 0.184-0.188 0.199-0.375 0.039-0.559-0.16-0.215-0.336-0.23-0.519-0.043-0.266 0.27-0.762 0.121-1.481-0.437-0.535-0.403-0.867-0.817-1-1.243z" inkscape:connector-curvature="0"/>
      <path id="path560" style="fill-rule:evenodd;fill:#c29f58" d="m13.148 16.486c-0.214-0.136-0.386-0.093-0.519 0.118-0.137 0.242-0.094 0.425 0.117 0.562 1.227 0.797 2.43 1.16 3.602 1.078 0.425-0.051 1.027-0.172 1.8-0.359 0.321-0.055 0.813-0.082 1.481-0.082 0.266-0.024 0.359-0.172 0.277-0.438-0.051-0.265-0.199-0.375-0.437-0.32-0.696-0.082-1.199-0.066-1.52 0.039-0.773 0.242-1.308 0.359-1.601 0.359-1.094 0-2.16-0.32-3.2-0.957z" inkscape:connector-curvature="0"/>
      <path id="path562" style="fill-rule:evenodd;fill:#c29f58" d="m22.27 19.045c0.21-0.133 0.238-0.309 0.078-0.519-0.133-0.215-0.305-0.254-0.52-0.122-0.719 0.481-1.027 0.985-0.922 1.52 0.082 0.375 0.375 0.812 0.883 1.32 0.184 0.188 0.359 0.172 0.52-0.039 0.183-0.215 0.183-0.414 0-0.601-0.403-0.399-0.602-0.653-0.602-0.758 0-0.215 0.188-0.481 0.563-0.801z" inkscape:connector-curvature="0"/>
      <path id="path564" style="fill-rule:evenodd;fill:#c29f58" d="m12.227 8.846c-0.559-0.27-0.891-0.641-1-1.121-0.028-0.242-0.172-0.348-0.438-0.321-0.269 0-0.375 0.133-0.32 0.399 0.078 0.508 0.254 0.894 0.519 1.16 0.239 0.242 0.614 0.453 1.121 0.641 0.637 0.242 1.2 0.625 1.68 1.16 0.32 0.371 0.691 0.933 1.117 1.679 0.137 0.215 0.309 0.254 0.524 0.122 0.238-0.133 0.293-0.309 0.156-0.52-0.637-1.121-1.266-1.949-1.879-2.48-0.078-0.079-0.574-0.321-1.48-0.719z" inkscape:connector-curvature="0"/>
      <path id="path566" style="fill-rule:evenodd;fill:#c29f58" d="m12.387 4.846c-0.453-0.668-0.641-1.293-0.559-1.883 0.051-0.266-0.055-0.426-0.32-0.48-0.238-0.079-0.387 0.015-0.442 0.281-0.078 0.64-0.023 1.187 0.161 1.64 0.136 0.348 0.441 0.801 0.921 1.36 1.122 1.332 2.04 2.668 2.758 4 0.11 0.238 0.282 0.293 0.524 0.16 0.238-0.16 0.293-0.348 0.156-0.559-0.664-1.203-1.305-2.187-1.918-2.961-0.586-0.668-1.016-1.187-1.281-1.558z" inkscape:connector-curvature="0"/>
      <path id="path568" style="fill-rule:evenodd;fill:#c29f58" d="m13.188 0.283c-0.266-0.027-0.415 0.094-0.442 0.364-0.078 1.519 0.066 2.824 0.442 3.918 0.667 1.359 1.121 2.386 1.359 3.082 0.082 0.238 0.254 0.332 0.519 0.277 0.27-0.051 0.364-0.199 0.282-0.438-0.215-0.64-0.625-1.562-1.239-2.761-0.453-1.254-0.64-2.602-0.562-4.039 0.027-0.27-0.094-0.403-0.359-0.403z" inkscape:connector-curvature="0"/>
      <path id="path570" style="fill-rule:evenodd;fill:#dbb464" d="m13.148 12.526c-0.242-0.321-0.375-0.602-0.402-0.84-0.023-0.243-0.172-0.336-0.437-0.282-0.266 0.028-0.387 0.176-0.36 0.442 0.024 0.16 0.227 0.519 0.598 1.078 0.562 0.773 0.855 1.187 0.883 1.242 0.613 0.746 1.238 1.09 1.879 1.039 0.265 0 0.371-0.133 0.32-0.402-0.027-0.266-0.176-0.383-0.441-0.36-0.481 0.028-0.961-0.371-1.442-1.199-0.266-0.32-0.465-0.558-0.598-0.718z" inkscape:connector-curvature="0"/>
      <path id="path572" style="fill-rule:evenodd;fill:#dbb464" d="m15.586 14.006c0.269 0.078 0.414-0.016 0.441-0.281 0.028-0.266-0.078-0.426-0.32-0.481-0.48-0.133-0.879-0.597-1.199-1.398-0.106-0.403-0.305-1.016-0.602-1.84-0.051-0.242-0.211-0.309-0.476-0.203-0.242 0.082-0.321 0.254-0.242 0.523l0.441 1.321c0.133 0.504 0.293 0.89 0.48 1.156 0.45 0.668 0.946 1.066 1.477 1.203z" inkscape:connector-curvature="0"/>
      <path id="path574" style="fill-rule:evenodd;fill:#dbb464" d="m15.387 12.365c0.215 0.133 0.402 0.106 0.562-0.082 0.184-0.183 0.172-0.359-0.043-0.519-0.265-0.184-0.465-0.531-0.597-1.039-0.082-0.266-0.2-0.653-0.36-1.16-0.402-0.879-0.64-1.586-0.722-2.122-0.028-0.265-0.172-0.359-0.438-0.277-0.242 0.078-0.348 0.25-0.32 0.52 0.078 0.398 0.226 0.906 0.437 1.519 0.348 0.852 0.535 1.348 0.563 1.481 0.265 0.879 0.57 1.437 0.918 1.679z" inkscape:connector-curvature="0"/>
      <path id="path576" style="fill-rule:evenodd;fill:#dbb464" d="m12.988 6.244c-0.215-0.133-0.402-0.093-0.558 0.121-0.16 0.211-0.137 0.387 0.078 0.52 0.801 0.453 1.332 0.824 1.601 1.117 0.321 0.375 0.614 0.922 0.879 1.641 0.106 0.242 0.282 0.293 0.52 0.16 0.238-0.106 0.304-0.277 0.199-0.52-0.266-0.773-0.598-1.371-1-1.8-0.348-0.344-0.918-0.758-1.719-1.239z" inkscape:connector-curvature="0"/>
      <path id="path578" style="fill-rule:evenodd;fill:#dbb464" d="m13.066 3.885c-0.238 0.051-0.343 0.215-0.32 0.48 0.297 1.493 0.895 2.719 1.801 3.68 0.187 0.188 0.375 0.188 0.562 0 0.211-0.187 0.227-0.375 0.039-0.559-0.8-0.828-1.336-1.933-1.601-3.32-0.055-0.242-0.211-0.336-0.481-0.281z" inkscape:connector-curvature="0"/>
      <path id="path580" style="fill-rule:evenodd;fill:#dbb464" d="m14.629 6.803c0.16 0.187 0.344 0.203 0.559 0.043 0.214-0.16 0.242-0.336 0.082-0.52-0.618-0.746-0.922-1.883-0.922-3.402 0-0.266-0.133-0.387-0.399-0.359-0.269 0.027-0.402 0.171-0.402 0.441 0 1.68 0.359 2.945 1.082 3.797z" inkscape:connector-curvature="0"/>
      <path id="path582" style="fill-rule:evenodd;fill:#dbb464" d="m12.988 1.404c-0.082 0.243-0.015 0.414 0.2 0.52 0.558 0.242 0.988 0.68 1.281 1.32 0.265 0.801 0.465 1.403 0.597 1.801 0.11 0.238 0.282 0.293 0.52 0.16 0.242-0.105 0.32-0.281 0.242-0.519-0.187-0.481-0.453-1.16-0.801-2.039-0.375-0.696-0.879-1.176-1.519-1.442-0.238-0.109-0.414-0.039-0.52 0.199z" inkscape:connector-curvature="0"/>
      <path id="path584" style="fill-rule:evenodd;fill:#dbb464" d="m15.469 1.686c-0.028 0.238 0.093 0.359 0.359 0.359s0.414-0.133 0.442-0.398c0-0.375 0.093-0.618 0.277-0.723 0.215-0.133 0.254-0.32 0.121-0.559-0.133-0.242-0.305-0.293-0.52-0.16-0.453 0.266-0.679 0.758-0.679 1.481z" inkscape:connector-curvature="0"/>
      <path id="path586" style="fill-rule:evenodd;fill:#dbb464" d="m16.547 1.686c-0.055 0.238 0.055 0.386 0.32 0.437 0.266 0.082 0.426-0.012 0.481-0.277 0.105-0.403 0.172-0.613 0.199-0.641 0.242-0.105 0.293-0.281 0.16-0.519-0.133-0.243-0.32-0.293-0.559-0.16-0.187 0.078-0.32 0.238-0.402 0.48-0.078 0.293-0.144 0.52-0.199 0.68z" inkscape:connector-curvature="0"/>
      <path id="path588" style="fill-rule:evenodd;fill:#dbb464" d="m17.746 1.885c-0.078 0.238 0.016 0.387 0.281 0.441 0.266 0.051 0.442-0.043 0.52-0.281 0.133-0.398 0.199-0.773 0.199-1.121 0-0.238-0.133-0.344-0.398-0.32-0.266 0-0.399 0.132-0.399 0.402 0 0.266-0.07 0.559-0.203 0.879z" inkscape:connector-curvature="0"/>
      <path id="path590" style="fill-rule:evenodd;fill:#dbb464" d="m20.066 2.686c0 0.238 0.137 0.359 0.403 0.359 0.265 0 0.398-0.133 0.398-0.398v-0.684c0-0.266-0.133-0.398-0.398-0.398-0.266 0-0.403 0.132-0.403 0.398v0.723z" inkscape:connector-curvature="0"/>
      <path id="path592" style="fill-rule:evenodd;fill:#dbb464" d="m21.547 4.443c0 0.266 0.133 0.403 0.402 0.403 0.266 0.023 0.399-0.094 0.399-0.363 0-0.454 0.054-0.719 0.16-0.797 0.187-0.188 0.199-0.375 0.039-0.563-0.16-0.211-0.348-0.238-0.559-0.078-0.293 0.266-0.441 0.734-0.441 1.398z" inkscape:connector-curvature="0"/>
      <path id="path594" style="fill-rule:evenodd;fill:#dbb464" d="m22.469 5.404c0 0.266 0.133 0.387 0.398 0.36 0.242-0.028 0.36-0.172 0.36-0.438v-1.8c0-0.266-0.118-0.387-0.36-0.36-0.265 0.024-0.398 0.172-0.398 0.438v1.8z" inkscape:connector-curvature="0"/>
      <path id="path596" style="fill-rule:evenodd;fill:#dbb464" d="m24.066 6.486c0 0.266 0.137 0.383 0.403 0.36 0.265-0.028 0.386-0.16 0.359-0.403 0-0.558 0.078-0.933 0.238-1.117 0.161-0.215 0.137-0.402-0.078-0.562-0.187-0.16-0.375-0.145-0.558 0.039-0.297 0.32-0.414 0.883-0.364 1.683z" inkscape:connector-curvature="0"/>
      <path id="path598" style="fill-rule:evenodd;fill:#dbb464" d="m24.668 6.803c0.105 0.215 0.281 0.281 0.52 0.203 0.265-0.082 0.347-0.242 0.242-0.48-0.055-0.106-0.067-0.2-0.043-0.282 0.133-0.215 0.082-0.386-0.16-0.519-0.211-0.106-0.387-0.055-0.52 0.16-0.16 0.238-0.172 0.547-0.039 0.918z" inkscape:connector-curvature="0"/>
      <path id="path600" style="fill-rule:evenodd;fill:#dbb464" d="m13.148 15.725c-0.242-0.055-0.402 0.039-0.48 0.281-0.082 0.266 0.012 0.437 0.281 0.52 2.426 0.718 3.625 0.585 3.598-0.403 0-0.265-0.133-0.398-0.399-0.398-0.242 0-0.378 0.113-0.402 0.34l-0.078 0.019h-0.398l-0.801-0.078c-0.481-0.055-0.922-0.148-1.321-0.281z" inkscape:connector-curvature="0"/>
      <path id="path602" style="fill-rule:evenodd;fill:#dbb464" d="m13.066 18.045c-0.238-0.027-0.371 0.094-0.398 0.359-0.027 0.266 0.094 0.399 0.359 0.399 0.293 0 0.828 0.027 1.602 0.082 0.691 0 1.226-0.094 1.598-0.281 0.828-0.508 1.574-1.227 2.242-2.161 0.16-0.214 0.133-0.386-0.082-0.519-0.239-0.16-0.426-0.133-0.559 0.078-0.535 0.695-0.84 1.082-0.922 1.16-0.398 0.43-0.812 0.684-1.238 0.762s-1.293 0.121-2.602 0.121z" inkscape:connector-curvature="0"/>
      <path id="path604" style="fill-rule:evenodd;fill:#dbb464" d="m19.746 17.486c0.188-0.187 0.176-0.363-0.039-0.523-0.187-0.184-0.371-0.184-0.559 0-0.718 0.453-1.226 0.855-1.519 1.203-0.348 0.371-0.602 0.824-0.762 1.36-0.105 0.265-0.027 0.425 0.242 0.48 0.266 0.051 0.438-0.043 0.52-0.281 0.183-0.559 0.465-0.989 0.84-1.282 0.746-0.531 1.172-0.851 1.277-0.957z" inkscape:connector-curvature="0"/>
      <path id="path606" style="fill-rule:evenodd;fill:#dbb464" d="m18.309 19.443c-0.188 0.11-0.442 0.188-0.762 0.243-0.32 0.05-0.574 0.105-0.762 0.16-0.265 0.023-0.371 0.172-0.316 0.437 0.023 0.266 0.172 0.375 0.437 0.321 1.016-0.188 1.668-0.375 1.961-0.559 0.453-0.32 0.867-0.84 1.238-1.562 0.11-0.239 0.055-0.415-0.16-0.52-0.238-0.078-0.425-0.012-0.558 0.199-0.371 0.668-0.735 1.094-1.078 1.281z" inkscape:connector-curvature="0"/>
      <path id="path608" style="fill-rule:evenodd;fill:#dbb464" d="m22.188 18.846c0.132-0.215 0.093-0.387-0.122-0.524-0.211-0.16-0.398-0.132-0.558 0.082-0.879 1.227-1.988 1.934-3.32 2.122-0.266 0.027-0.376 0.171-0.321 0.437 0.028 0.27 0.176 0.387 0.442 0.363 1.597-0.242 2.89-1.07 3.879-2.48z" inkscape:connector-curvature="0"/>
      <path id="path610" style="fill-rule:evenodd;fill:#dbb464" d="m22.629 19.365c-0.055-0.265-0.215-0.375-0.481-0.32-0.242 0.055-0.336 0.199-0.281 0.441 0.133 0.637 0.481 1.172 1.039 1.598 0.563 0.402 1.16 0.613 1.801 0.641 0.266 0 0.414-0.133 0.441-0.399 0.028-0.269-0.093-0.402-0.359-0.402-0.48-0.027-0.922-0.172-1.32-0.438-0.453-0.296-0.735-0.668-0.84-1.121z" inkscape:connector-curvature="0"/>
      <path id="path612" style="fill-rule:evenodd;fill:#dbb464" d="m23.508 19.443c-0.242-0.05-0.387 0.055-0.442 0.321-0.054 0.238 0.055 0.387 0.321 0.441 0.48 0.133 0.933 0.094 1.359-0.121 0.453-0.187 0.774-0.519 0.961-1 0.105-0.215 0.039-0.387-0.199-0.519-0.242-0.11-0.414-0.039-0.52 0.199-0.242 0.586-0.734 0.812-1.48 0.679z" inkscape:connector-curvature="0"/>
      <path id="path614" style="fill-rule:evenodd;fill:#dbb464" d="m11.746 5.686c-0.051-0.243-0.211-0.336-0.476-0.282-0.243 0.028-0.348 0.176-0.321 0.442 0.293 1.305 0.758 2.332 1.399 3.078 1.226 1.414 2.121 2.336 2.679 2.762 0.215 0.16 0.387 0.132 0.52-0.082 0.16-0.211 0.133-0.399-0.078-0.559-2.082-1.629-3.321-3.414-3.723-5.359z" inkscape:connector-curvature="0"/>
      <path id="path616" style="fill-rule:evenodd;fill:#dbb464" d="m14.906 5.604c0.133 0.214 0.309 0.254 0.52 0.121 0.242-0.16 0.293-0.36 0.16-0.602-0.184-0.32-0.305-0.746-0.359-1.277 0-0.266-0.133-0.387-0.399-0.36-0.269 0-0.387 0.133-0.359 0.399 0 0.558 0.144 1.133 0.437 1.719z" inkscape:connector-curvature="0"/>
      <path id="path618" style="fill-rule:evenodd;fill:#dbb464" d="m21.348 19.283c1.281 0.774 2.254 0.95 2.922 0.52 0.476-0.317 0.746-0.906 0.796-1.758 0.586-6.48 0.723-10.172 0.403-11.082-0.215-0.637-1.121-1.531-2.723-2.68-0.691-0.504-2-1.359-3.918-2.558-1.016-0.641-1.879-0.762-2.601-0.36-0.641 0.371-0.957 0.946-0.957 1.719-0.188 6.801-0.227 10.734-0.122 11.801 0.079 0.719 0.946 1.558 2.598 2.519 0.883 0.508 2.082 1.133 3.602 1.879z" inkscape:connector-curvature="0"/>
      <path id="path620" style="fill-rule:evenodd;fill:#ab8743" d="m16.469 16.205c-0.375-0.453-0.574-0.84-0.602-1.16-0.133-1.199-0.105-5.133 0.082-11.801 0-0.718 0.344-1.215 1.039-1.48 0.746-0.281 1.606-0.141 2.578 0.422l-0.738-0.461c-1.016-0.641-1.879-0.762-2.601-0.36-0.641 0.371-0.957 0.946-0.957 1.719-0.188 6.801-0.227 10.734-0.122 11.801 0.106 0.719 0.961 1.547 2.559 2.48-0.453-0.32-0.867-0.707-1.238-1.16z" inkscape:connector-curvature="0"/>
      <path id="path622" style="fill-rule:evenodd;fill:#f0e0bb" d="m21.746 18.846c1.149 0.719 2.027 0.879 2.641 0.476 0.425-0.293 0.679-0.839 0.761-1.636 0.028-0.43 0.145-2.137 0.36-5.121 0.187-2.907 0.172-4.641-0.039-5.2-0.188-0.586-1-1.414-2.442-2.48-0.347-0.266-1.519-1.067-3.519-2.402-0.906-0.586-1.696-0.692-2.36-0.321-0.586 0.321-0.894 0.856-0.921 1.602-0.161 6.187-0.184 9.84-0.079 10.961 0.079 0.664 0.852 1.453 2.321 2.359 0.824 0.453 1.918 1.039 3.277 1.762z" inkscape:connector-curvature="0"/>
      <path id="path624" style="fill-rule:evenodd;fill:#a8420e" d="m16.148 14.725c0.079 0.668 0.852 1.453 2.321 2.359 0.824 0.453 1.918 1.039 3.277 1.762 1.149 0.719 2.027 0.879 2.641 0.48 0.425-0.297 0.679-0.84 0.761-1.64 0.028-0.403 0.145-2.082 0.36-5.039 0.187-2.883 0.187-4.629 0-5.243l-0.442-0.359c0.215 0.375 0.321 0.719 0.321 1.039-0.024 0.293-0.172 0.481-0.438 0.563-0.347 0.105-0.519 0.371-0.519 0.796 0 0.454 0.172 0.629 0.519 0.52 0.344-0.105 0.543 0.055 0.598 0.48 0.027 0.403-0.067 0.735-0.277 1-0.243 0.321-0.442 0.641-0.602 0.961-0.188 0.399-0.188 0.575 0 0.52 0.215-0.051 0.348 0.215 0.398 0.801 0.028 0.558-0.078 0.961-0.32 1.199-0.344 0.375-0.664 0.801-0.957 1.281-0.348 0.586-0.387 0.895-0.121 0.918 0.32 0.055 0.441 0.27 0.359 0.641-0.054 0.375-0.281 0.601-0.679 0.679-0.586 0.083-1.68-0.359-3.282-1.32-1.492-0.906-2.386-1.613-2.679-2.117-0.239-0.426-0.344-0.668-0.321-0.723 0.028-0.05 0.204 0 0.52 0.16 0.348 0.188 0.684 0.176 1-0.039 0.32-0.238 0.281-0.625-0.117-1.16-0.641-0.824-1.055-1.426-1.242-1.801-0.372-0.664-0.465-1.199-0.278-1.597 0.16-0.32 0.387-0.309 0.68 0.039 0.32 0.426 0.531 0.613 0.641 0.558 0.531-0.265 0.425-0.933-0.321-2-0.508-0.718-0.84-1.398-1-2.039-0.215-0.718-0.109-1.105 0.321-1.16 0.292-0.027 0.652 0.282 1.078 0.922 0.375 0.586 0.679 0.852 0.922 0.797 0.636-0.184 0.464-0.957-0.524-2.316-0.398-0.563-0.586-0.95-0.558-1.161 0-0.269 0.332-0.402 1-0.402-0.801-0.453-1.614-0.652-2.442-0.598-0.344 0.399-0.519 0.825-0.519 1.278-0.161 6.187-0.188 9.84-0.079 10.961z" inkscape:connector-curvature="0"/>
      <path id="path626" style="fill-rule:evenodd;fill:#604821" d="m19.27 14.526c-0.161 0.398 0 0.574 0.476 0.519 0.348-0.055 0.535 0.172 0.563 0.68 0.027 0.613 0.078 0.945 0.16 1 0.293 0.215 0.492 0.332 0.597 0.359 0.215 0.027 0.348-0.16 0.403-0.558l0.078-0.879 0.441 0.359c0.321 0.184 0.547 0.133 0.68-0.16 0.105-0.293 0.066-0.653-0.121-1.082-0.078-0.238-0.211-0.547-0.399-0.918-0.054-0.293-0.054-0.895 0-1.801 0.028-0.988 0.094-1.785 0.2-2.398 0.16-0.911 0.441-1.227 0.84-0.961 0.374 0.265 0.558 0.359 0.558 0.277 0.027-0.211-0.012-0.613-0.117-1.199-0.082-0.508-0.067-0.813 0.039-0.918 0.293-0.293 0.762-0.227 1.398 0.199l0.442 0.359-0.039-0.039c-0.188-0.586-1-1.414-2.442-2.48-0.347-0.266-1.519-1.067-3.519-2.399-0.535-0.296-1.016-0.468-1.442-0.523-0.132 0.16-0.574 0.32-1.32 0.48v0.043c0.828-0.054 1.641 0.145 2.442 0.598 0.374 0.188 0.761 0.442 1.16 0.762 0.8 0.691 1.238 1.32 1.32 1.879 0.078 0.453-0.094 0.801-0.52 1.039-0.347 0.187-0.48 0.402-0.402 0.64 0.082 0.215 0.348 0.399 0.801 0.559 0.508 0.16 0.629 1.055 0.359 2.684-0.265 1.679-0.746 2.636-1.437 2.879-0.668 0.238-1.067 0.57-1.199 1z" inkscape:connector-curvature="0"/>
      <path id="path628" style="fill-rule:evenodd;fill:#b6a176" d="m21.508 10.365c0-0.535-0.121-0.988-0.36-1.359-0.242-0.375-0.523-0.563-0.839-0.563-0.348 0-0.629 0.188-0.84 0.563-0.242 0.371-0.364 0.824-0.364 1.359 0 0.532 0.122 0.973 0.364 1.321 0.211 0.371 0.492 0.558 0.84 0.558 0.316 0 0.597-0.187 0.839-0.558 0.239-0.375 0.36-0.817 0.36-1.321z" inkscape:connector-curvature="0"/>
      <g id="g630">
        <g id="g632">
          <g id="g638">
            <path id="path646" style="fill-rule:evenodd;fill:url(#radialGradient640)" d="m21.027 10.365c0-0.402-0.093-0.734-0.281-1-0.184-0.265-0.426-0.402-0.719-0.402s-0.535 0.137-0.718 0.402c-0.188 0.266-0.282 0.598-0.282 1 0 0.371 0.094 0.692 0.282 0.961 0.211 0.266 0.453 0.399 0.718 0.399 0.293 0 0.535-0.133 0.719-0.399 0.188-0.269 0.281-0.59 0.281-0.961z" inkscape:connector-curvature="0"/>
          </g>
        </g>
      </g>
      <path id="path648" style="fill-rule:evenodd;fill:#584d39" d="m24.309 11.924c0-0.481-0.094-0.895-0.282-1.238-0.187-0.348-0.414-0.508-0.679-0.481-0.266 0-0.496 0.172-0.68 0.52-0.188 0.347-0.281 0.773-0.281 1.281 0 0.453 0.093 0.852 0.281 1.199 0.184 0.348 0.414 0.508 0.68 0.481 0.265 0 0.492-0.176 0.679-0.52 0.188-0.348 0.282-0.762 0.282-1.242z" inkscape:connector-curvature="0"/>
      <g id="g650">
        <g id="g652">
          <g id="g658">
            <path id="path666" style="fill-rule:evenodd;fill:url(#radialGradient660)" d="m23.949 11.963c0-0.371-0.082-0.68-0.242-0.918-0.16-0.266-0.344-0.398-0.559-0.398-0.214 0.023-0.402 0.156-0.562 0.398-0.156 0.266-0.238 0.574-0.238 0.918 0 0.348 0.082 0.641 0.238 0.883 0.16 0.265 0.348 0.387 0.562 0.359 0.215 0 0.399-0.133 0.559-0.402 0.16-0.238 0.242-0.52 0.242-0.84z" inkscape:connector-curvature="0"/>
          </g>
        </g>
      </g>
      <g id="g668">
        <g id="g670">
          <g id="g676">
            <path id="path686" style="fill-rule:evenodd;fill:url(#linearGradient678)" d="m7.629 5.244c1.012 0.375 1.707 0.188 2.078-0.558 0.188-0.375 0.266-0.789 0.242-1.243-1.629-1.144-2.707-1.757-3.242-1.839-0.371-0.051-0.387 0.507-0.039 1.679 0.32 1.176 0.641 1.828 0.961 1.961z" inkscape:connector-curvature="0"/>
          </g>
        </g>
      </g>
    </g>
  </g>
<metadata><rdf:RDF><cc:Work><dc:format>image/svg+xml</dc:format><dc:type rdf:resource="http://purl.org/dc/dcmitype/StillImage"/><cc:license rdf:resource="http://creativecommons.org/licenses/publicdomain/"/><dc:publisher><cc:Agent rdf:about="http://openclipart.org/"><dc:title>Openclipart</dc:title></cc:Agent></dc:publisher></cc:Work><cc:License rdf:about="http://creativecommons.org/licenses/publicdomain/"><cc:permits rdf:resource="http://creativecommons.org/ns#Reproduction"/><cc:permits rdf:resource="http://creativecommons.org/ns#Distribution"/><cc:permits rdf:resource="http://creativecommons.org/ns#DerivativeWorks"/></cc:License></rdf:RDF></metadata></svg>
